<mxfile host="65bd71144e">
    <diagram id="xLo9kJIk72-qRnyNJ6BI" name="Page-1">
        <mxGraphModel dx="1538" dy="823" grid="1" gridSize="10" guides="1" tooltips="1" connect="1" arrows="1" fold="1" page="1" pageScale="1" pageWidth="850" pageHeight="1100" math="0" shadow="0">
            <root>
                <mxCell id="0"/>
                <mxCell id="1" parent="0"/>
                <mxCell id="2" value="Choose (0 to n) or create databases" style="swimlane;whiteSpace=wrap;html=1;swimlaneFillColor=#ffffff;fillColor=#f5f5f5;strokeColor=#666666;gradientColor=#b3b3b3;" vertex="1" parent="1">
                    <mxGeometry x="10" y="60" width="1000" height="550" as="geometry"/>
                </mxCell>
                <mxCell id="51" value="" style="sketch=0;aspect=fixed;pointerEvents=1;shadow=0;dashed=0;html=1;strokeColor=#314354;labelPosition=center;verticalLabelPosition=bottom;verticalAlign=top;align=center;fillColor=#647687;shape=mxgraph.azure.computer;fontColor=#ffffff;" vertex="1" parent="2">
                    <mxGeometry x="160" y="240" width="100" height="90" as="geometry"/>
                </mxCell>
                <mxCell id="3" value="Board Buddy Front End" style="swimlane;whiteSpace=wrap;html=1;swimlaneFillColor=#FFFFFF;fillColor=#f5f5f5;gradientColor=#b3b3b3;strokeColor=#666666;" vertex="1" parent="2">
                    <mxGeometry x="360" y="40" width="610" height="480" as="geometry"/>
                </mxCell>
                <mxCell id="4" value="&lt;p style=&quot;margin:0px;margin-top:6px;text-align:center;&quot;&gt;&lt;b&gt;React Front End&lt;/b&gt;&lt;/p&gt;&lt;hr&gt;&lt;p style=&quot;text-align: center; margin: 0px 0px 0px 8px;&quot;&gt;&lt;font style=&quot;font-size: 19px;&quot;&gt;Choose Database&lt;/font&gt;&lt;br&gt;&lt;/p&gt;" style="align=left;overflow=fill;html=1;dropTarget=0;spacingTop=0;" vertex="1" parent="3">
                    <mxGeometry x="20" y="35" width="180" height="90" as="geometry"/>
                </mxCell>
                <mxCell id="5" value="" style="shape=component;jettyWidth=8;jettyHeight=4;fillColor=#ffe6cc;strokeColor=#d79b00;" vertex="1" parent="4">
                    <mxGeometry x="1" width="20" height="20" relative="1" as="geometry">
                        <mxPoint x="-24" y="4" as="offset"/>
                    </mxGeometry>
                </mxCell>
                <mxCell id="6" value="" style="ellipse;whiteSpace=wrap;html=1;align=center;aspect=fixed;resizable=0;points=[];outlineConnect=0;sketch=0;" vertex="1" parent="3">
                    <mxGeometry x="255" y="75" width="10" height="10" as="geometry"/>
                </mxCell>
                <mxCell id="7" value="" style="rounded=0;orthogonalLoop=1;jettySize=auto;html=1;endArrow=none;endFill=0;sketch=0;sourcePerimeterSpacing=0;targetPerimeterSpacing=0;exitX=1;exitY=0.5;exitDx=0;exitDy=0;" edge="1" parent="3" source="4" target="6">
                    <mxGeometry relative="1" as="geometry">
                        <mxPoint x="230" y="120" as="sourcePoint"/>
                    </mxGeometry>
                </mxCell>
                <mxCell id="8" value="Database Choice" style="edgeLabel;html=1;align=center;verticalAlign=middle;resizable=0;points=[];" vertex="1" connectable="0" parent="7">
                    <mxGeometry x="0.3126" y="2" relative="1" as="geometry">
                        <mxPoint x="29" y="-23" as="offset"/>
                    </mxGeometry>
                </mxCell>
                <mxCell id="9" value="" style="rounded=0;orthogonalLoop=1;jettySize=auto;html=1;endArrow=halfCircle;endFill=0;endSize=6;strokeWidth=1;sketch=0;" edge="1" parent="3" target="6">
                    <mxGeometry relative="1" as="geometry">
                        <mxPoint x="340" y="80" as="sourcePoint"/>
                        <mxPoint x="330" y="75" as="targetPoint"/>
                    </mxGeometry>
                </mxCell>
                <mxCell id="10" value="User&#10;Database&#10;Module" style="shape=module;align=left;spacingLeft=20;align=center;verticalAlign=middle;fillColor=#f8cecc;strokeColor=#b85450;" vertex="1" parent="3">
                    <mxGeometry x="330" y="55" width="100" height="50" as="geometry"/>
                </mxCell>
                <mxCell id="25" value="Loads" style="endArrow=open;html=1;endSize=12;startArrow=diamondThin;startSize=14;startFill=0;edgeStyle=orthogonalEdgeStyle;entryX=1;entryY=0.5;entryDx=0;entryDy=0;exitX=0;exitY=0.5;exitDx=0;exitDy=0;" edge="1" parent="3" source="14" target="10">
                    <mxGeometry relative="1" as="geometry">
                        <mxPoint x="140" y="370" as="sourcePoint"/>
                        <mxPoint x="300" y="370" as="targetPoint"/>
                    </mxGeometry>
                </mxCell>
                <mxCell id="26" value="0..n" style="edgeLabel;resizable=0;html=1;align=left;verticalAlign=top;" connectable="0" vertex="1" parent="25">
                    <mxGeometry x="-1" relative="1" as="geometry">
                        <mxPoint x="-20" y="-25" as="offset"/>
                    </mxGeometry>
                </mxCell>
                <mxCell id="28" value="&lt;p style=&quot;margin:0px;margin-top:6px;text-align:center;&quot;&gt;&lt;b&gt;React Front End&lt;/b&gt;&lt;/p&gt;&lt;hr&gt;&lt;p style=&quot;text-align: center; margin: 0px 0px 0px 8px;&quot;&gt;&lt;font style=&quot;font-size: 19px;&quot;&gt;Create Database&lt;/font&gt;&lt;br&gt;&lt;/p&gt;" style="align=left;overflow=fill;html=1;dropTarget=0;spacingTop=0;" vertex="1" parent="3">
                    <mxGeometry x="20" y="170" width="180" height="90" as="geometry"/>
                </mxCell>
                <mxCell id="29" value="" style="shape=component;jettyWidth=8;jettyHeight=4;fillColor=#ffe6cc;strokeColor=#d79b00;" vertex="1" parent="28">
                    <mxGeometry x="1" width="20" height="20" relative="1" as="geometry">
                        <mxPoint x="-24" y="4" as="offset"/>
                    </mxGeometry>
                </mxCell>
                <mxCell id="30" value="" style="rounded=0;orthogonalLoop=1;jettySize=auto;html=1;endArrow=none;endFill=0;sketch=0;sourcePerimeterSpacing=0;targetPerimeterSpacing=0;exitX=1;exitY=0.5;exitDx=0;exitDy=0;" edge="1" parent="3" source="28">
                    <mxGeometry relative="1" as="geometry">
                        <mxPoint x="60" y="205" as="sourcePoint"/>
                        <mxPoint x="255" y="215" as="targetPoint"/>
                    </mxGeometry>
                </mxCell>
                <mxCell id="31" value="Create Instruction" style="edgeLabel;html=1;align=center;verticalAlign=middle;resizable=0;points=[];" vertex="1" connectable="0" parent="30">
                    <mxGeometry x="0.3126" y="2" relative="1" as="geometry">
                        <mxPoint x="29" y="-23" as="offset"/>
                    </mxGeometry>
                </mxCell>
                <mxCell id="32" value="" style="rounded=0;orthogonalLoop=1;jettySize=auto;html=1;endArrow=halfCircle;endFill=0;endSize=6;strokeWidth=1;sketch=0;" edge="1" parent="3">
                    <mxGeometry relative="1" as="geometry">
                        <mxPoint x="340" y="215" as="sourcePoint"/>
                        <mxPoint x="265" y="215" as="targetPoint"/>
                    </mxGeometry>
                </mxCell>
                <mxCell id="33" value="User&#10;Database&#10;Module" style="shape=module;align=left;spacingLeft=20;align=center;verticalAlign=middle;fillColor=#f8cecc;strokeColor=#b85450;" vertex="1" parent="3">
                    <mxGeometry x="330" y="190" width="100" height="50" as="geometry"/>
                </mxCell>
                <mxCell id="40" value="" style="ellipse;whiteSpace=wrap;html=1;align=center;aspect=fixed;resizable=0;points=[];outlineConnect=0;sketch=0;" vertex="1" parent="3">
                    <mxGeometry x="255" y="210" width="10" height="10" as="geometry"/>
                </mxCell>
                <mxCell id="42" value="" style="ellipse;shape=umlEntity;whiteSpace=wrap;html=1;fillColor=#dae8fc;strokeColor=#6c8ebf;" vertex="1" parent="3">
                    <mxGeometry x="520" y="175" width="80" height="80" as="geometry"/>
                </mxCell>
                <mxCell id="43" value="" style="shape=image;verticalLabelPosition=bottom;labelBackgroundColor=default;verticalAlign=top;aspect=fixed;imageAspect=0;image=data:image/webp,UklGRqx2AABXRUJQVlA4WAoAAAAQAAAA8wEAKgIAQUxQSEE1AAANGcZt20iCnOzL7r/hOXe3gYj+TwB/9KTphWoArXRJZ16gKmg2GoScFaBH0lZTiyBGhxjojI5TKgAPSozLfJ+joG0baQl/1nvvEETEBMSX1J0W9nxrXzktmLgzzUWjFIdEBI4AGdkC8auCtm2Y8me/64gJSN+SZNt2W9tWRGkd1GXa/P8fHXNOiUAr8dA7QJCC2IinGRET4Fu2bdtta9sqpdTWegdASfYY8/L/P7du42ZbJAH03lqt5YEUSXHYAr32JSJiAjL4z3/+85///Oc////f//x/i03CAMu7DPPTanJnJUxW18xwZ9HPEXsl38/MkMNYQlbIcKVZI2ahbWbIzE+LiQwIa97rmAx3VoIM1wBih53YWaQgwOg4PikOKwgCaLm9y29le6wRroFrTRmEASsZrIVuzNMvHrXMgDDSIHtgmaE/xGCAOC9BhiuZ8XU8IGjQIY6n59NwoQzJmGVWQCMMw6RZYjHOndHGXzW3AzjnlIJTrAlOSwtPwzl+iKcZqjjLFXAF18Tdyo3D29MTce6yGLuwAx0rOLwqgmB3Q7GbnnvuNsdx+zXzZU4JT4NYS8CiMCwy2znme92+vNgsbG2YrrgCs0ZnxsrNpyeWXpbSrSBFRBC7A9LBUJgeYi+7nYfLH79UxuEIX5YNEAIEA0jTBcyQpZawUcQ3OY7OeZ60E0nShNCQNDsZJEkBFDR7430TDHcyM2n06ASjPDn377nNjL9GQogAlCMzM2ABpigJNCgk6zS59XIWgYfm+JbjuA2z59fzfBGbHcUENAGbZAjGc3e/ogHH3uaVepAPNCqiIhhtAF1FB0HPOceFEWrtI6Q1p0wAzqqkSYCEAMa9MESTSHCyCyQg7M7NO/3iJnSenYse8nYTMBETaXs+dQ7eGDsMCkOCrCZQEFCCC1BYIIisGpMG7SU+OHoE7MocxRSfxdsa02Szzco0Cey5G0GO83Q71vPrebaDx/DW0DDe6igntco37uyEi+yQJct9GqDSaVHUBAJhUzFHzulkLPGBEb2jXJVznyZaSPj+guiBJufzdpItcxzHb7OdX//qhdvtGF5fdo6QMGHOu4dTvD0BdsKYkpUkzYAEBZRNIiI2A2iKWOa2z5Eu9OOHRW8oViXsCjxvms+w75CI2sS8bK7R6sx4tqcH94Eg7YRNGLjaLNYEZg8So9mJZkcwIIzHggpKGaZJmkoCpKS21dM0Z+SHhE7uvo4x01qF56ssQaRBEPYow0Abijf+7svA7Es7J2cvz7c/ebh7HnMTK9ipWaGhBJoVML5dZEGiMh4qOjgj7VkBgZUGEWubwwA+T4RHzsuOOT4iTmHVds1ZvQUAGIDtcIDAk2R9RLKamEav4RfN9mR9Pl+4HTPBQuttGNYlgwRwvWsKoXG/iWNNCkAeKKRpRGU0GshJSgvLtoGDmjPH9eoOfTRErBi1V1UnABsAKDFZeEpz3/TKw2YFd1ZChAZw50vPne0NoJbjMCLABFbXhITkcVoTYI9czaxEBBEooNgHHkUCRjGDTpIUAcitDWfVkTlnfSisB+95eZztGACwB2FrCbPKSRsQhHxkZubiTrNpkxCPn9rO4X4798uXg9nnF0JligSS8JE1kbxvvGcQRIAA2oYFjW1fF0mAdqCtUOweVXvqA+EQzuvcR2sEkLmUDFABwGmbBhPI6yYQBAjB7BAJSN22mGBnT4/beJzPZ+4owkoCGYKlQbO+z3cvQKNAQM5rtkUOmG0W+so2Lo5iw4fhcuA15z5PADBNSaQSrkIYAAza5JvdCRLA3FnZSQyJN6qdyP05yDu7GiSvJrNAYt8nmMKzQhEsoOChYEio6mx5PCyntfbto2Cx931fVwDTgLpEomofokgWYSbvaAB5ZxGYgPH244nnr+eRIxC+0z9a3ioDXXvlmOyKRYUs9HYX5DyP6B8BvdeeY+AAALMaIRG0VYl3mxMZkGl8ox6+vAjyamLfksw+SgywR/bd5LEJAoZEz6okJBHsM9W8TzuXk8ftF6e4fp25fwawVevRiHROi8S/pVnmm0yIj71HL6YqmE/Rl2CMugxGrJ9iy7z5WleOq+4A1BXLGmo1Mwf/bZjFBd/CbPIvHOq5jdqwLtGgAkQtulyqxW0Xbbnknn0FyrOzibadxFMTAP0e7FEyawBpd8ksr6fd2TvYG+wfQz8xWaRJqqbLICkWQ1m57+3TscZNd1q2yz7nJ8DXPBw7NPe92HEzNlq17TPUYmmuCcbpsD9mu+Gi0fvePgGYmce7VpjXKfF2YKO8nTPc1jYKCLdeX0fvNxvjeOWWtQA52YId+7QAwAQN+t3ZG+yRvc3+FWjQJgCaFCpRCV3PqYbkuI7jl8i80eIuve+PJwBzti9rVV6v6zO3JaPXlnm5z9MRE1Ve7+LhjOU26/YY805AVmt3y8hMmLcCi8+ZERo5Jk6nOhsEG8+P+NzqFlOTt8dToOY4dJHzSoGGCdWPH2gAJmEAa7ovp/x6bU0G6+q74z54e3FJe4wAPFosnLiOjpuVCxi+35ZTy4lI976fZ19uLXXObeATgOoh56jCU1N1Q9AATFBRmHv/tO5nBx2q67WfWDcWVpwfsgU8tCBQ5+qACRo3quk4ruevPjRb0O5Fo3RbiczdAQ+1RlVeGnHbihUa97g7ehQ6NyCvOt1Wvcp1AkxQsTmJ5+nbg4YJGqy9Tp/wONAwSe6jrzeVVDUfBdBmd10JwKRxw9oG2sGPW6xKkO1yjeg3VCxD04vlCsCutAyweMsAgoVtj7s+0jrW171Hr9upAxfXAR4K4QoHAauibhUaBlFgTp6OtZVjPT9gFaibKeJxzoUYxMKxl3ALEwaJQsecEsrVNGa0W4kwswKgAaKI5+mb5lm6hJmxKKu75Xks/VY6zl0EhHZngJi4tBK4z+OtUDixw7jKwyuNC3G/XNwQgnOUMM7hKC7zsc96wHk77Dnv5PrKfXX7Mi/PwNnOUxdpfjtfzhcPzvP2++3l6/ngCveAZ778fnv5K9jtNnSNDrYXtefbjGdepsfRHMQOu3J7+nqNFjtW98mX5z1G5lIB5wszCO2IXSIXd24inCcHdLHazcOGVT3OvUJNIcy4wXK5XRqMXDS8Qkecp8DMsN0FXqNAskGKZFEusbXQzCysgFxlIZCdeUATeIEmAqga5HIBMcV9rtolWu6X83TmAOgy9QDTJFsRL5AUgZ0kDBfdYJWQ62thQ+MRZxR4sdwpBGMHuzyy1AAHzrmB0MVqTrnPJvLyJEliGnHR7YERyOW1ZlHAnQC8YAkBkQ3XN+YcGLDZCeiCEfjAFa+P7NQxGHjKJffuYSBdn3RXIKuDCx7AdJdgzfWxZAESu2JCJIJrcXR90DPviJhrxl3QlC7XN5szwDXsgnVn3McUc33Mc1ZoCrxgrydGMHt9gFkDlhECL5qRJM0FkhBICISuWQJl0gUKjIch132W168QIdCEhJetuTN2L1BggqcmdNkIMBqu8IJCB2tc/cXpErEMILhc9ZgHgXKJFxRM6KrJPiDmGqXE1ZfHRcclkrzLRa9ab+jwEgGZkFz/Ba9RAgbchVeuiYtsSAAB0qXDqxTQ3P0adK+RJx287tWLuUY7q2/o2hnhJTJY5pWLf87YeYlwzt3bGwIvWq3HcI0MF98gdNXOg/HcS9QUvdwGuhuu+55zTFxioeTeu71yeBxc45BiuP6Fw0W2JBMIvGYhwMpVzmAgwOyaSWCu50US1hoIZr1mD3eQvUi4QwYT2TXzLsftKuEiSQNctO52hrhOniCQXPd8ccTrdJyz3LvgVeN8OY4bXSdcUmjiuj8zM+6Vkl4OoHkQeKUCAVfqSsX28lvSA6ErJYSb4HmhMKqDK98kvnCpTc4jejAXy7vlYORaZ5j4YC9WDwa5VmIQQMg1L53zUkWgd8NerEDgFHEv1biy3IcXSwg2BrnW3vZcFOQ+8EpxN410qeDghZQeCF2mHsCOPF+t28k5yWUvU6rEjZ1rPgjmchnpHsatPVFCNrCXC2lpxQ0eNJhxwY1C6AZL5OXgohdFz9srIyewK4aC4wYTYEHyetmzt8i6vXA42xGEwGtkgEBtEYcYt9gUpwwEQteIgIGs7C3SN9hxnOc2CA8uMvGsiTBu8hvPLx0H912mAghgOjhuM6ZTfHCdBRgo0YEb3Qy7Usaznkswb7VYxStFGLAfDy3oW02m9lI9661L4bzZjJO5XLAd8rzVcJb1ikkcdbMNvJw3LxSfJEgJN/toz/v8dLtOflJgaN5uzewu43UCzDKJqNsNiBQIvDwBwRwhEb7dZE3uhS6PYCAJkIkbfhYCudCuQgtcbzl+O6sVvEK+wrUP3PbCukNXqDvuU+uKG3/KF4frPBXkuPWEk/MpL0/ggyZi3npYy8uX6yMEHqICvvmQSCC8OMBM9hWXm8/CJkDWC7MgzN3rIfLm41bryr1dGCGoZOs7bv65nZ0vM4Jc2BiA0x0yPgIPI20I8A1joZ5ce/X6GBCy+OSWpQEgR2PoOD4EgAKEW9jDTfL8IEDRDvPmQZlNF3wM0ixD9A3DZyYc646PgoaZyeDNYjzrRETkR4HAGkTgZiUMmNcAW+CjsC17VlEAwmvydJOWVtcPA6iPUQoA0hUpEPAsLT3mxwHkAZG4VQkD5aneNnwgElFlAl4QAwKALEVLfCSaRVgwF5RAPZMV6/xQIOUsgV2QZ41d0VH4YIgagwsg8ILwOvTpEOcPBpljTh1A6IpsA4e7nB8LYJQLxBXlk6GQOPHRYMC3iPH8HgoWPhoDtgFeDgIGaoohjQ8H9EqU64aXA8AcbKucHw8IJBIHXYsCCNTuZWnX+oAgkQZ6LQQYmHDrI/ERUQByn4TAS2A8f2U0ReFDgnYSBaFLQMBApUn1gY9JAZUyXE1viKXN/WNCq3NODsCrwGfGqPWuX+tFImDCQLnsUr/ZgOPcCw7oKviZ3GY/7XixAiALLLMyq6J0uxGsFbmY7dORbjMI8Ek0TDABpg1FqxnXvelWg0Y5zMXw3V++9BEtQYEivBs2QBMgw4l9OEq3Gl3EcSlM97sTq1AmSIA0Mk2AM+AQG645jsO81bqe/345joHwGrBUuacB2lUuMllgGHAjELawnGfULN1mCr387/K7IF0DUDWqqgSmnS57moSIZxN9xTzN3C93uM1jyZfzZUaupJGVBcssw0ARIGD5CTCuB/U+ir7RgM0JQwBvgmTOYaKMdzUBzocvCC51u6WrAAK+CX5IE1bdL2qbbzfTrgrciK7fyzSeVhdk3PAN2zbvSBjgjx6GfReClgvU9E0X8pxVB4CAf/h+QJp4WiZxwwusaZFPfg/D18KfEBMFAlkO5u0W4XQBhH8XJF6V+AmlQQBOmMTtzj4raQRuY9N44lpuOqDBs54zwH83oVfmZ8IEDYA2nqYD1G1XE65cBBDwv1kgj5efSQIGAOP5lHnwTScz01DgZs4CKNZN5yV4vSIawN+JQvyJMKECzGdoeKorfNtx5b7vbA3w7wUgP5EECgBNGjCAsVDafNMBh5pOVMPvo7IW/jw8bxKmAWAXtV5x83ekdy9PDPA9Bb4S+EhW6qcgoWnAoEmABsZmHhpu/1aVqOoCCPgdCfFYiPtUlp9Hw3hqAoCBvCrZ8wOAvc3rdItn3rXQI4b7IB2E8F8tDcMEXSDIYhH7robDun8EHD0ftzgIKIDvKBBCWO6linuJf/MmHsooUpTBIuBz/PR5udZHgHqOSQRAwO/o1ZCfV7NoklaaADaof3osfAg2s8be+nN8VwLxum/x3ykxwMi7gkDBmAAyrwsjPPAxyADG2JYFAOF39Y3xxvj3ryEXmrJQBFAPpVNvj/goDHKMxCK8f4F89JMZSAo0YACoM9V6u8eHoRbnpcgOEAb4fkLuA38GjCQxsqmTAyCIutz3u94PD/g4bIv3MdgJGAT8fggDIX4WwxiXxIBGSQByn8djX6c/EMBg1dy5gvg3TMyfB2OS1SxZAJC5x7pGv8fH4uqo83Uud35igN8IfLdgAKvh59HVFSYy8TTHJfunpfVHfDR21L4xGp8Q8HNCvLew3Ev9RCA7y+jJ49o804cTLvXhcFhGjjHrBAIGvyWEDwLvAiGG+1D+fQPfyzDSKCE5r4ETQ/mID8hluV4ywSMAwnymQEpACEAIZLmX9t8IofcxIR7ujspdRF8PjEd8SHbUmNNtxbMGIA+N72r8pH41sGhRn9plx8ck77ofHweWDgKgwQwYgEB8IARDD4Z/ZSFiB4FeCUvI2j0EXoiG/oAPS62n7bd7dxyaAVioAAMQIu4DYZH75V86YLe5He3yqme5QDQMImJtBz7iQ3Mb/ae2zSKeGix+44e0dqdTv3QubAGzgqe3vEPz1YkPDhzW7YylGZQBE8+bqie1xyKoyj8A0dfTrwfH18YSmgDrtziAp6qx4+NTzAd/XisLBghYRbx0XuPYJG/4EWz36+35aV6GlUGOBuy4eVObk4kP0Rp1d6rzZACmhaIJ0M/UQ8Ta2Tl2APS/nBy347ABmx1oEkx3+aXqWOr+Mbp60DRePPfR3XprXdxnGq9M7A3pTm8J/HA4nn67zcHizk5INOXJL1fp8do+tcpI45WXHa0p1BeaOeZrvrfQRyPOb91MMpFsKpZfsDmWT8v1PIabbcAw6MQAsTanSbE5qnxCr9nbDIN210MZPt5AJnBFCGJZftG2pV/uL5lwwenKqoTNFsu6PIw5N9/1xoiY/3nmO/v1P38fv/9xzH5AwqwAwy9h1qVagFKi0llVBWtZYr0Ob3nWYW0R0eb8369fzu+xf20cvyl+QEkav46Nw6eo3C0WDRgWEZETAPbpxoAQufJUGUTQoyL2/Pv48t9/3pqNjzUEF+WXcl815rhKEEmRFMW84vkcLoE1x+3gkAliPWGBqu1F6Pb7H083j/pYJMj4xQSUIZIiJYqkRhrfntNgmduXA0Z3CmIhl2grb3Nz9txTPuLA/cWE5bCGAwIF2cYrDVfWMbdYkAQckgiGgfnjT//+n7/+83f7wfiK9KsJUMckCRIw3nTucXTuzjnuMMPoZuqNm/w+L/Ty9evpB9Nd2cGv6SKI73iqZyw2KYMYNGMb//krZtM+mMezc7r+inq3gbTBgRhvPRX8iGIS+RRcNd48ywdtQHwOJt+apR9OknxmBnw8Bix+buBHc5/2eeHKR5yQnxfJx/150dCH5X5auCJ9SDWfFpjlR9TQp0US8vGug+enhavQh5MN7KcFtuKHs+ARn5cx8eHmjn5iNMTH69YMn5euSB8NK/qJgbn4SuCH0BH0iRE28arQh+BifGJKNL3yYSbpJwYxJXQ3H0AgbvKpKefcSbgfgBBJ+okRTROQxscAAvWJ4ZIISX4E3YXIJ2aSBgb5AbxunxmGJQnSB/IJapisfJQN2GeGcW82+2EsB31qRCLZrB/GOWN8bhqAZh9E5zjW58YqQMYHuTuKfGo2rBApEPhPI8z61KAGwLgT+qdlTfKZ6bDnAA0Fwz85ENihqc8MhPN8SoKBE/znCAEutHxmCsvOBBQc0D/nceGcfHruvBxSoss/2Ucy8em5nocQIf6juoum2+eHO0Ei2T/q4YkcfHZGgkwTBYQ/WuAbnkX97HhoNA3cST+a0Cvnyw31/ORwTgvBlpg7wh8o5hXBM4/pswNLA+jcsRGQfpyGBe+Ctjn8+unBVAJGpRM/tvHmam7Gp6dsdaMZzxYFf5wYgAQEvsbt9sLn51Qx4MGeDUA/jizEBAbtC8fvfIJabNwa9PRUfngJiPjrODyeP0Oy4OU2o8y5zxwC3fmdQiEEEPrfvf3Xn/vXZwixdJy3blLn4gDefW8pkO4C/3o+fv/t68tniMjznk+z59Pc2l3lR04AAf7nuB23lk9RO0bGibtRC2YGCyCfpL1H2h0BE99OhvZ9Ff4k5bz4dIe90GNeqgUA2nx3A0QBhAGEB7DvB/xpeq2467sLS17ncmDZBU9YYt9kCYAAAYMA0CIRuePP07lx4ZQC6b5oZKKoje9sgwBoADmtgcMRf6LWVQvRe+5A4xwIklj6ToQBGgBCZY3H1v9MAalRnWkGx17LQgABzL5bgni+Ek3RdZn4c5V5zjWgQLl6g4GcFHqvBpt+orlNlA8n4s/W677eqYhpI8om2MAs7+1KPM8Wk76OwJ+uiUPbdhfZlEUIRN41McMMVM7LjuPdurZt4E/Y0H52F9ldMPnczre9XZj2PKO3thB/ytaGwwGFkSKQhCTfdw5GP/W5zzwbf9J6Wet8HWN6OS6yzd7D7p5zp4HWPv10p1H48zawbRS4EmDiu75si6sMuHcQf+ZmtUM38rKNVN9WMgySzMA9z5msLy0wf/26G3/uxjE4xvlyybSBak/urZai9OiGLMfjYcGfw5VIg244olh3g860ddk5ODzQqIw/iw6LlgXODaYwuUOSwIYBz8t1T/xZrL42zNx3J0aOxl0HBhHE4GXxJzNpWDuiOljKgAotUfz53Nelsx5pCgjusHxmkxSU6drMTvF5Hq7y//7nP////2MLLsD6N5A8DUB/mkQvGoWCbaiIhGEX2PWdGsWCXTAMGCj4KVp7CxGsKqOZX38rWskqFQswDSTLVCLN7xKNMhOVQFlF26gyYM/2OtIEZ9lu/tILRdsM2zQMmCBZrUIFeZ6vEeSbSAxOm8UCbNAyDQNFaF4uEQJfBMko7sTe+JXPI7uGZ6JokniWaNFNlebmkXPFW66NS25z1lSRMi2BFgjQGtNzTqx4+WKo9mtlv/3SW6FC5siiVQIAE0oKAFUsVTlne11fINW2eRZASiVIIPgUDl7BqbmtL2EKMGTKr3tyFXKfM4ecAcIkIKdsQsXgCgzsD+feX8QlWJU5nUhCkEAHCD4vKBbMNvZ5vy7fcpahdQSZX3gnQvv5/MgU2owwYKokmw4HrNbnMsY+uvmSdlzHPi6XUllkUBQEkkBQFALquMt5mT0vxxeYSTQI/GXXoFF73uWFCgUEEirSFWUDhKIalonybn6DDRHb3LeGS0liQCBpGYQgIjIokn13zdyX51AACAJN/lyEEHtumIS9IdgWeLoZorZtP143aV1aqWjDRIE2a6IF0b2gTW97lp47cbvk3HE4X3tXC0jJolE0UDCBVh1NoZP2x7pu63MgbFhl8lNJOdDfz5IA8WpS5xnnfLkN2MocD3fXS1BxEApZQqEMG0ljhqS2L2zehzuebVZ+vaTaeWtrWyLCykIZVTCyUPIUGxhSLJfRt8vxuSIAQgw/mY7iy9fznB0hXreMbWMv+y0gOquO2qwlljK+TZsEU4nJKK5zdRt2PmHjJf1wPdZvaq13RiW+bdh2IducGmqSoNDYa7YnJgAWWT8bMNxfXyfBptdAnOGlr3+fL+f68QvWNtknqM9r4sXE8/MrLjgQPY+wMZ7Emg/n3Fb/wrtji1YXvOlvwGXWKZStfdJl84anBIASan42vOmRYgGkiZeTblbqIRGj9KMHepYwid4H3rbN3ypSIUC8JGcADbP2RzLqssfCFN70dOqZ17FnwTouTW7XwjdVUPxsHhVqs0pNAP2iUnYvaNt4zMTvLMFCEfwDsZ1ALoj9rRCf7i+TndmSUBWg9ghffg4fV2zzcS+89bJSMR4fE0z2w6rcvmXC/Hye54mUUy3IMv0CU/DCpk/Xr1sv/Z6QCNeexmx/JFkY+0FMvDWBr+ftBDz8NAWn2/EXpNbSrsMBwvfsd3c5fnkchN1PdzWnv/FjGlteQMBS0aYBmE80QXSEahZ2/K4KoGcJxB8li4Cxr2zG91yusGJYrQq8u2D6enrU9cJufOd2mHPOUZCWFvb8oQGGTZCJy0qgBECAaSO9urHHgfs2Qr8fyiAHy6T5B4FiqWMhJr7vOvfZdd+CZRg5958etNTj6PjurR1jv78UCEWLBMwfGJElE1j3SRIADLDSmVlHLcLKfR8LfkdbBXJ3mwr8QdoFlUHr+wSwVx0u6gZLzrHi8bOwNX4/nNa8PG5udQiFhi3/wIAFiqOBsPFtEinNstwDNup3xLCrSzPwx1mQw6QK4HcQ5shY2KHmNkroj4+Gh/Eee3Nl7u0SrcV6RumHhjCBjtcScL8+DK8NTboA/v3A0CCPkIt/FAZKVMtRIL6jNa/Vsh0b5P3q2jyDDLzTg8P7GBNx6E7TPzQA8cbEOh4YbpRt/I6Wpm03yPijZFaTZt+0K78HkXsuUusu1JxTJbJ+ei9YC/uexy3WZu4Gf3AMmG8AQMqqamaz/fvBBEsG+MfhpOHY+n4ceW3t7ao11MS4r89SBXVdicundxPNmHMPmaQA/9gYAPG2FGaxRAV+R8aCaiBQ+sPgXgvCu9ZYf72e8PaqZZnYBlDNglsR3g7vpnXsw44iZYP4UVd6BmGG8TsaEygTNP44DbsW5BKCxmxvBsGcAJAkHLCAjHeDRnuiACDI+mEDKRYJmc8JhGEYMItFE3oNSRgGDMC0YRB6hnY/GglIyXr8ggHoGRFmAQYM2AAFymUYAgTbMCWYNgouUHwimjZgwIBNUy+jamj5+cHW3c5tY6MJvgFAPMtiVtt7BvGeKSjtBIOFH3cBQEEQnu8hZqLKxpgTI9jw2k7J6TLswpxVSC54Gm7H9dJnZOsGfcTcqs0GgIubdk6UjZnF0RqwaA7MqYwmjfTM3hcrnemRY64rALAzXE7b5Zr0iIZXJEfAp6i4++m6TZciAt+3ImGG3pfIYk6VJNv8UWtZRtFhP3N3nixGkoTDAgvjcnzZOjAAkCahbCXLVZcDwRKIdBthEgAqC2hJ8PjItBwpwwGV0udTK7PKCToolwiag+kiCYAmcLqkAUQRhFsRyPNBLwliRtb6r7/ucFO4IM8pkG9mViuL1DsDp12kIMM/aKS4E25iAkvrvzIf0LwwIEloUZes33pbntPSrznGNQJNZKC5qQ/lNi7nU3WYKE5VgEoVhy2oH/QLx5Zd7NUkNlHza14PkukpI6JdbPbWa15LQrVcapH62v7l3KqRCxlskts4+/7cmr4hPNQ+1/bXhw73Q8E2XAnvIPWEfEWJBShbvStQRjIt0ab5Y+ZeOZKgWOCqK72PDCooUgz0gczaF/OZ6B6c22/VwiE6wGi2lvMInakQJ5MGpYxCjRQZjQM5H0ts7ia7WH1sG6MV6NlMdxEOihjXsXSKrYGKRXuNepzRALXGoKA5rq1KeOHy4H30xxWWVqPQPMswWCwSLLyYZZI1rYZ3TQpZTFNRLPnH7PRYqEBYTHz6Wp7VvlIqmGSBynZ0Tm6X2Z70OWvkmd0EbJZpc4ECda29OefCkOQxSUrVjb7OOe2tBWSWaJsNXNp+GXKhU+ZooKTccg7BpEjHom3Y89olgK5i0Q0tthoj9+Vb7Fl779OkrYrZZsspm0wats7R9C1YJVQrwO8KBIAkQKto/sgUAb6J7s4bXNFA7Pz5/nrN8X8+fWogaXjSqFjuvnzRdT/nviD6dc+x/+PzGqH0pJlWqR/aT6fL120+xZeulQ/7WGZvfblbtp/z6zXn//5yWkxATO1RXcf/PD3keWm1lOR5BTsirr/+n3VdJEVXNPb8ej/1t/XLIdn24jCTbWmf/nv/dUNeFz3Xc/clLi0irF0gGg4oFI3Bor3mfqWxCACLNASj9P4MyzYC8A+KAbNMvOmXh03zMWajjvun66x8LLbes6XgrAKWuazS7NeaAbRK10z1NVtHxkSlk47OFnmdnJEzFnVyXJFBKTqAPS+PJg8ixDAnZwitH8YYbTasNmqQKwz/r/Phr81kU6zufR9XGksLLEuxMKd5clua+TVhfDvwODE01ZEwiQDhYtExaRWLTiIBwCqIdiTrfYEwS0mQBeIHNVCLpvr15571ApOI09+I7SKs0ZaH8Mh8XI7dBFU2omb1HWti/cz4jVuGNY0WEcV9AwxV4DJw2LUwOrOK3a4qqpNlJ2vvpXHfDwuLs2ADbR9FZ2PcXXdVKwGAm7Hndf28Lh0Fj+Xa5nXLX3RaK6Ng2IhN2Cca18Myz5PfApbTXpwGKQIyxZJBqJvJQpKF+dgjUCQsJcz3RhYLBTrgHxVcRAPxU6naC4JQ3XvyF6/q68+XPN6nZ64/LfhkJp4K+Rh5Qfv8l2XDznugMPDYOpd7PC8D/8BgtKX1zL0ObTorrQNoM5uXK5Oj/+Xgu8+XHc8u9Xh9iIOPp9N1h5kEwNC8/CtObVnvzkS6Prdt37/G+vnQsg0AIIDzftm8tv7X4/EhbX6rA9fUlbsIMSWESnRILNroAGqMXVuTIMBCvTMBoMu0ZZo/KIEAGWYJ3zRNsGoWRXZwXu4umPUvtzXWdce3A18Tcx7XXubQpRMZESVev/H0p1/3Kw4NS8PGxkHPllQgJnS5SxqF1jvWHd8WfivXqS8kqBIAuNlzX/px3VgAiM+e12uj1uPdv/DCwzgnfLcsfc5sO1582MspUTkxk5FRNKIEwhRK2j01etGkg4D9riwAhg1AUP2gYHLZApH6BpmqyYRCcVQ7/oY+R+2H1VhhvPh4+CVd1/r0BVenjWMq6uGMl3/+lTXbclpmFNGvCMiCi2Aac477g5EPxosPx8fr1IHsSTwlMDKOfVmuSOKpK8c4LdDxAS/u18i5V+dy0O4ZfAGaadvZ7bAnSRNT6KBoRalVbPvlkMGwAeN9qwgAtiGr+KMSAIrVTOJbSTsTVtPS737+F6I8Bw+t3X3a8XLhy8NlX9rxDrUzsbpx2cc86EU4fc06L59XzgagW8gACADLkfPycFh0+MsjXh7Ar+fLYUXrAEwAdmVblgSIp0HkZaxHjQe88oDH81f9pXNxXQMvFp6tvdNOcwNQRPTmcINB/TTPF0JSEczy+zJJsGzArYgfVjENAiC+bRksISDA+yOgwXpQRM2B1y8zZy0CmcnqDND5FS9ffjPsMFkAEJZBgy4pC8WVlVe8fr3CJTAmCNBOcG1IfDMmgUBj92uA0+PgqLa2ZL3sm0KCIM2ilTQyZpiSUAFOJBCAAfpdkbYhGVARP6qCcyjZOv0tgKhAi5ZtHH4F4KQWwJn1BmzeosB+wcyGkLTW4X8eAZowLY6LCt4LjU+SEEyXhKJ9obtavQGO81qyi8bzbozCtzWQV1ht9ErQL/Dsd5dxGWvvvNJvAYhusA3YMb1jqoLRY2t5SJwniIrUZL0nQk+QYYCEf1BA7CizOeAXwEo1ncjrBU8TzRSFt1RUzdXhqOGQuFS22XcQNGgW2pYOV0EAYOGpQQAoFdR6m3jDZW5IiQCf0CmtMb7BlrOqMQ6zEoDxQhJzzuvsd5w23pYgQDxrXDg5Nbj2aH/7ycdx3hpU0iyP9+QAyyilCNr8cXEDrSSJF5oIR2418SynSJlDb0GmuMuUo+ZQWL13TCL1jB+jWu6YiddahuEG2vBboG0lF/GsSYqFb9MoqwHmLBnmCwCo7MyDRDxLw3zRa9ddaNdCufT5/3wqjUi4DYXr+p4Ewol0kCjIPyy0bI4ktq4XCAASLzSLAYt4k7mmtZtCG2P72rAeF+WhhlIGTF6vk0DpNRbwRMvEpPwWCJRgmgBYaHbyW3Apg+2ONT0biBfSKHmWiggKR2rPMR/RFXwbLIDxt9jktvZN1UZU73sgsO/1fii65KzotFH8cbFKcGLZ8UI/eWnssFkhvwlagnQQQr9W7gvWqHDKrEgZJdjm4768gngGVAA23rRNO2wBgJUUWN+yWUCTUSzj5SZUSKXDIJob25WZtgvf869/w0SvTw8rsu/CWIsFbvP9CLS1U6RtEz+uNAEC4EteXTQNpd8IomkgjHam9q1NBNUJMsO0Ilja8/xw0oueTwUAWG9Dwib8BFYRhRegSGzKGWp8BQwIrdjWg5edaUKgaXznT/cEtB+3iApXox3V9u39BAyzbITxgyvfvyiINsi3IYlEgMBp28d+9t57iy5btsDe+BnzfrScwRewCMBmcBQA8w1A2mV8k4RfgIlAbo85+hr0K2iICJ3k5RcYBMiNBfn7xM7KNUabbIINCjzv6/JelgzYPDsj6NIPDa6u38UlOoql0puoWAkIBazz7BRNAirZKiJIRibKRbzQYcJlEoCLeEuhCoVvy0R9yygIcJUX6zWGKgqZ4ANiEyuAKHnq+2DdjEoXyEgYJPW4xemddDMLR9jCThM/tg0r35VlyjIr8ZYqoiyQRSYnlHZWaYQBwyrH0nTY92u2l8ACbKhVGiy9xeGBNl9gGnyBUYr1YDptvIYKRcS2B5DFhKodMmfhO5eLqkowjLmaos67dXgf0bc9J87B4CbB/KEh5DsNVTddvL4JTaOMKC8jiOqCUWObO56OXRW9NRzyvvSipyW4aU4Sb8DDb+uUYfC516blvnQ7ObC8ggBaYL9OHsxpEdp1xKz6ThCtiapq6UqCjMcdc+nvo2lsn31/aK3ZBeJHP6O60bzN4KsiicIMINoWcOExAyDmCD8xE52Bhozyq5gVU9FyYvRXLQNzB0C8LSOzqq1KXOn5CgB9spwWGOUSj9dxtAvfWTJtJUjN6QMgXUbtXvo7iF45gfseLQZM40dfO9gsxHZZ8Gr3KqSBIGNizH0NPI2WMmHVbzHWVIhdVc+wQNBPYpyw9vW6BV4dyt0Bgn4jz93RZFxBvJodm+seTW0s5zZbNk3UjNJ3AaMSyAjWg6sKRvnykO3u+y2nLffH437JdsQZKP7wIRHVit4Zr6MSRhlEL06NwfYMQRAgiH9OWmIQNgAWhYqiYRaBtowx+brmml5JGG/MnG7LaGP5x2e+ailXwkYvgpNeTpswWcJ3pbRhIq3YXRNmST7/cyyn+F7tbs4xW/vV0HIBLPNHj646qqs4H1539+grHg+xKYdbKJa8L+HlPOS1gWLjNKyUo5qVARVqj0UNMf/5CXqBePf3gaNSQbx1ZGZ54bLpK16rfplzjGVNFp5Q1dLLXvdFfod1FjLmMIOf/+ZrWxZSj4+7xtL1Xfg55z7G8ZxcwzsAE8/anzYUUVgDhbz/xJf9/MtyfcCnE2qrke2gI2v7OtvLatE5TfdmAjQRbBObAdSyX/HlGJ/iOu77CJMU0KL9ermuD0s16TuMKi/dcyyPp5f14z+Qv/6f03+3rU9DI3vHJq/LXr+e8PaNSm/9kpNh/PXs+59DifR+eXSc4u10WLYa5+30K9e7aMN4lgWa+/PB4o9Bu8wejk3bV7z4p38ss/4HlqOWx0goGg+HS068nD/N6wUKdw0ABkDSSoC+XwYOxOJ+nmAFwGxMR849ToQC9BuBlbPiMO2sfXmJTr9x7n+bh+PncQbAtEief8po99i/wzHTtYBlBtAez8xCypr3/0TnHd9sXeDczst1ttaXfcfzJgDzU2r5/XDcxpWfox8PY69/3LUCQbjd/R9d5+NPwnK4YOzMHi1C1/vzXQEEaGb89I9JR6fgAsoZCHKp+dtfOb48Rl6vy6cDm5006JjAto37NbRsSBrfpF/RVj58PeB4x5qPD6ewCbLi9HeO+vr5NHZf8IQcM7/M0ckV45cDpNex+ufr3Mc41P3aUQDaon1ZWjd9uU54W1ZYryGCDfvcR67YFoXGhm/Jkg7+PsLv4if846BlIJrvRNTXHWtbj23n3q7XGZCb6uu6nf/n3XqMVvfgyAifuidzu9+lEiEeT//o9ets0dqnCcDZEGjAneHr17HK53n89Bntp7ntAYjG2O//92lZ7v5zEDZNUIBR8EvWlr/+erqLZf3yWHG9NkNE9689/3U9/Hzklw3PnF078V//uhuxcozHwGyv6l+Ok3m9/Ad+PSmOT/qa22/LX+6KlRiXa5ajLXxFXyDul3l9PMXWMuLTPb5pQmx4+q8T6N0EKJvI+MOACRDku+txlPdYw41pGCWlEkmyHaC/PAB8ZM6lQp2aZdOAVSjkCIoxa+Cpk5IAIrsBcsv6S0WLRCRhFNKIEKfLZYCGE4AEvkRrelZplfpIFuwwMVF7NHbOeXkG0hyj7//1P/5jNvFR9mW2l3GlMZxff8ZvEUvzFYByw5w/n0iQ43rJLPa5xku40lGeY+ALR9cUd3ybJkndniTeP1iVIAJ/mMmyT0fy8t3QlvlLNvTToR2c2IkqlP1wOmDph98AoHO/Xnr204ELXIOAJ5h6iE9Ht3n6SgDkHI8das0VewQ0MbfLHr0tayHtyuLpxOoPd9eWNg3XGEVqCbyY/bDcox2W5fhpTlcaGAbu+5cTA8df8fxhXJFe5l//9slqq6fbPgkBBAGGdroyLy2/IvpJD3ga9bhw0bo2tzln1aSdkikLRDCNgsfQHeDmBj8gD08ImwzGl99FwHcJM3I6lH8YrnTemEm+/4L9ev56h/XYB3IIyFHO2U+9//W/f7k8adgv2PtyuJvAzFAVnddzVltOUvzLeILc63qSgpmBiqavxfvtqN67Ztl2xnpA/ykfB2uCgD1HVbToL8PS4/7xt9PaDzFc084a05nx5dS++Fd8u18uScJ3GWTUsUYNK4MWJCA5Zj7UcX7t5HJ3j+c1RqaPfzlUQyHTY6bLIhoEgTln1gN7WLV0HfK3x3HaVoAAxfmf1/jzj2PvehejwBzVsfxhYEfNZTj6Aegq4LqQFSHQtqEIE/3Lb3hWnn3O6m0sJEQDJkgFVO3LL3iWuAq5W2AgwNyLj2cxZZgImoxix3lbGpm0BVa5BIdewS4w9yPI7qCtoqClHOvlHi/txbmzAqQok5w0DYGVKiOrjtzm0nrTefsG+hYjT6euRgI1PVyTBEkCtEe5LXX2yiUiqNZWzssRRdhq//g55+kpiPd2gd4Q0h9G5fR+zuj5A4DYYrteK3WMCLLUqIMwavkV32TB+2XL6pQaimA1cTlg1PGf+HYXtocCCfaTRi7jepxZswrobhKpmBtw7VFI0zBqlBltvgJx2FH7Yxm9QWGgoR/YHg+PEy+O037ZH1lLa7YC0lIFFwzDhUpwI448rB1nfwtrbmDhGD0E2HayWCikqmCb8/HqCKs3GMt/7Pu2//IFg9Pzp4c6rDwO+hYzSBBg/WF4zBrs2NcfAVhx3YfhvZGESmxrA84DLxTyWsM8tyChVJFocYcaF7wwJva9eFVjbxUTse9qVclkoropzAHgIFeZFlRlwBqvAhZcL5XEFlGkw42HJf2IVxI4j0nMDgoQBRQMs1zJBM1AxLKcLrvx0sA+L1jX3joBoGjbVZNpJwSTihChlvaCncX+25cCnA8ETwAh0m+I+4wWdI4/DAxXHv2HH7eR5eJUkRDJMarwytgFTBqmCqBS2mYZLw8gCgnjfF0PES569CiCBcIu4+l6ySxUAxB9EebjY70OaLSmNQSQlnLbjbdcWDsrFSBNGjLJAtGqmYAQTfOfeLX3PZfGLoqsSMCocgFpyAQk2uPKFgTULhmHAdqRoMEAhfoG05QpzcCPawCAc44GiDDedAEKuScHOiwQxusJANNZwPk0P3GwEj1gFAov/PwPT2SKAbTTpwVvLcConPtiBlB46wZcRu4XBxE2KdOQheoAEGpc94m3fUQUFc1hFgEDMABYDsZybMMThy+NiOiF4iAyVuKpNCn6DVCSDc2qH5hnCZQBFL6rYOSkiO9+x04xnNjx6mVnGiZpvEMCLhHEdz2MURk2DYAVJUtWwDLVhZF4623aaiEQRJEATctAY4tKI0eNsboholhWEoTpCEkwvlkaWs45f3QA0CDeo4x3uLntOt5h5HY5viIOD97RQLV6DwBoFP19ECHMARWJgmkBMikL84LvmQZqRiMIkyZLlglzbgDQNrc6R3R4MTBxCVIwBbKI95W44geZeJfEuxxzTn25c2y8XFt7gaLdr3PMZrL5nYD4/sLT2sUSAdMCBAfSeI+jQiYNEgQIAhPPr3PL+9/W3loo6gFHfGAyy4juJbL23JueYaMvhfx7qLXY3s37JeZsJRMmCJNl432WTZkmARKA8cI2tsKYuYbqgo/NNjw9t7tPnz7vE5mTouSZhcvlty+9ffmMDb+/bFMpA4CBwjs2aAIw8YZ9XhVV5X2vDw70c6IO7fOaV7tAgeWwuf3rsh7XuFt2/B6BIH5/W2bVpPfCh6fa3POAilMrmwnAhj20QpIf8AMdWclxxgdoB66XLfJ4t/LkVi57+Fr9810t8+48fqQQ+CiNmXPmBf3QE4aLlYatow5/yd92/DndZjXn9ChJEIEQRaIt5w1/WjdXzrFlNnOxLIlcRh7PhT+xCe/KIhDTECGyNHfiz+3KCEbk//3Pf/7zn//85z//+V8wAFZQOCBEQQAAkNsAnQEq9AErAgAAACWdu+ulZ7BXhAJ4NoEb5FZf1T8dPAqjP0H+1frN/V/+7/ivmGpf8v/sf5J/tH+6/y+8q1h9AHvweKfkX9Y/s3+Q/xn9Y////d+9P+s/w34MfKH+yf3X/be4D/Ff5f/Xv7F/jv9z/cP///9fA7+0/4k/AH+r/17/g/3b98Pl4/y3/F/3vuh/XL/n/6D/AfIJ/Nf6X/uPz/+NT2K/3e9hf+rf7X7//lr/1f/c/x/76/S9+y//U/yn7//Q1/Mv7T/vvz97gD1AP4B6g9yXzL/tH46fun6x/i/yf9H/tf6s/1H/k/5P44sUfXd/jehP8V+tf1X+x/47/Cf27/4/6j7pf0v+q8W/j//Of3T9rvgL/G/5L/VP7b+wn9v/9P+t5ji0H/G/vfsC+8H1j/S/4T92f7p6eP+N6dfXf/ne4J/Nv6d/q/75+93+V+W/+740f33/s+wN/X/8v/8fZf/tv+p/of3s/xHvy+pf+Z/nf3k/z/2Kfzf+yf6H/C/uJ/ef///zOZ4/VVNPmTxptExptExptExptExptExptExptExptExptExptExptExptExptExptExptExptExptExptExptExptExptExptExptExptExmcDYRNtExptExptEsDzsNyG+EJMujndVr+uoTk9aygYdYgGcbbqO/0j0LMelYOq/pfuIjiE0nZdhqhRYxXByUL9iULLgyeNNomNB29iRwxyieEQijmW3teAlUYi2f3sJfzFaQyYawchf3sgX9ncL/+zSxCFm48UjJZvnEZTu2D/z49iy9g2m0TGm0TGl9q2xXIuQyL6IBwTpqq2AGp935aSIB70bH+UAvhd9fKX3XRW4uG55a9PmTxYzMSdt4sODxm7OCebJCDb022kNfydPYJgNIRtTakJa/+NlFk2cDhPGm0TGl/cOYVr2fWpIO6gOEKCc7SKFbsjmIxTJchgoLCZaFv92LAmKW6Hn91/SgHtzNG3s0aeLHOpx8BMjTPmIg4RQRPGm0TGlz2TUOWEVh+I4nzGvX3+icof2SZhRBDBDgKg9C1AzgKar5xLJafudJ/l45Sg3t2M7gNyLD2qhRKRj9/V2NeCqhhjqbRMabRMXuI1IP5mDR9XWPocqMNGDmsQ5rjAPr/zavlS+0tXfFKmT+Rz4VbLObSehEeUo8LHx3i6HjZa8rwCW402iY02iXarO30oSkTgLL61rsLIdo3OOO9zSieGiNBZyroeMqHyiarj2wvFF+IjKshvZU16y16fMnjQZbjBcdojWlxNhx4yZc8exEfLNx9QZ0igtKlACoJvwLn5krhKIEQeaMfWXYTJnNwYAEOiTGm0TGm0QXegSWNbpPSphNj8ztZJBdVYoVTOl16rXfYatrWPSOYkyaoNS6RSojAaO0Xce1igfxJl3Jzh5a9PmOs/GK8ecUNZ/Gva+YEJ00SubZiMUncN2XR8YBVTReaU6IoOq3kIHG38BcA4SN2FqKJRzpI7CqcFWcpiCqTR7Q6SJTF9tGPmTxmqqbWifBtVqBiXdnKrt8pZylUHFYP2RYWT1k7jPTCF26X4ADENlnJx4NFrDuF4KRry81/dBL673x2MRr8hjY402iY02iYnuRz1fWsqySOjFFpjh4CI/T6MOsoqlVLHbMSdTUxAWgyeNNomNNomNNbZmDjfu+WyepkGYNpDhhrRMabRMabRMabPZgsZ1u1sr2QHQvX71bDtox8yeNNomNNol2iJFJsvsApK1TdJfQdzCOePDpFGsNoRJOcPLXp8yeNNomNNmqzWOjTLOflFAlUPKj6rjQ/s9PmTxptExptExptExptExptExptExptExptExptExptExIFltcSwWYGG0Y+ZNKd1XlcIaizLj1IDgvOrKIxHqrBaHN8EdoJk8acryxe8dP4a4b+52WokIpuapgTLjHV0Zlme9AcwXWumYZoZnug/XkSjmYtPdbbXnT5kpGaeJfnBQvU1yXcn6iej/pub5kxhXilDpDHK9Vi99bq2RF5+b8XM/VFTwt8aH4SlT8TZ3pRR2Mn6HoeScxbQUNLHPJsV0ay9Za9ZzBC7cIE29dPQ3nAk3HITl/lfIglGwxGYcAzcMpZG/FicnBs5jevGO+c4ONTHgtFzV6FGoXzq+kXsXDzzpP/6hliPxUt1Y0pQS3S/arCr/3dRUx53PrhayK6fxeT30v+rKfUNJps0GXG2ZTm+HBl9oDU8mfbtG94N8rI0jmfdlX5RrdmsnjTaJpUe+nzJ6V0xJZx1EY+ZPGm0TGm0TGm0TGm0TGm0TGm0TGm0TGm0TGm0TGm0TGm0TGm0TGm0TGm0TGm0TGm0TGm0SoAAD+//327UAAAAAAAABuYVUDBMCyvxkXuB2WvAzDthO5sKkvr7J912MJUVU3XOX+a3EHF16RnkbAn+zWxxzCiRWPVPu1bmDSlHM9P6U10QM5TOxfDkuaNwUg0kPpywfrTGOewI/SOzP77g7+yhdUuLscsLAhqDMR79I+wkSgaE30e/bnlbnCH/kgSQzC70bthTTyZ5hOK0gQ63jLcBYwJX70JnYOdjMjuivggSr+RBB38OmePAP/B6D3WnbMh9jReG/8j26zD4rAczqUAubfQWjKrvQIj3V/6RJ+GI6vk33VJUmLYkQMk7Ip0XUKO4vWvwCLtHBqmxIdsmn8IGsKTQASrA0A3jphxGMCbLbXvGRzhplWKQjSa5eDh2uC1+E204rjozPPLY/KhHfPcDGBdWBLEDOM1bNZGKoPWYEMmwIlRZ8RiFlIr5biivmoMbad9v3KOjdBODggh6GK3GXI9bXQG2Ca/5aD745pyLzu5e/VDHtiXDrSnDl87Rb4zRONb1ikNbD6uL9PGGKBfCUA6Pm69poFJwFXCaHKY7sXaxK0aJ0hnPgLiNQHz+ZkwSHvScjIDmXPUrLl6uFQ0MoZ2ErA6jGKxWFxx9OOZNsYMP89Qwz/NNqC5RzH0lx+7fjg34LFGjoTINg8X0pH2Eh5fSFYKmQ7yR8uIZjWCnA9zo/iLtzfmECf+4znL3/iYF2kLZ4QpKDtUjFAcwOiJG32xpuAtL1rM7cexS9eVltMRfMt4/JcDPraP6SfYIEBoxDKEwDmBI+8iuvpBG9AHuezqAjbvEByhyPNw8qg+pJz3sy9RZBGraFxEd25ZWcAaekIT6WfaKlf/EeYbRGN7c9snu54WTbZobgA3G+oGIaLqFZvKtCUPm3EXK6g0fiA0ky/TmrgN1YGnyh8MaTYnLnkiU1yyI/Cgy3L/i2sUilD2DnQlM8hbFBCedfkzfBTaRTGb/2it5V2uybWYLR0miv7FM42Hc0FJatuUp99XkuDERaSGRDVaEUibT9VnTDOv5LAwXN1tlRNxcENaxvNDDhdoxu0rR3urDYwPLOTEmrMXAlj0PsN92/aaIoMfmXvmp2VrMuv084Z6zNS4EAoC4R9JU1cGQUOoPlqZESUk6KTeMPIyOnF2LsgnPj0gTkktyn34/pgvpID0Akw2ukaONeo0YpqOLw+b2r1dMEQKAr2iyKXRtEV3OWGA/ZNPa/k3N3BEFc6MkXombTN/lvf0mGQ/WjRDTrJIQhETD8p/rjkefksWodZ1+1+SwQcdNyA0XoL4vZB+jHSewl+DP7Z3aUbQPqAWDeo33gp5+jXj08Lh5cTZppxHsup479NvSFLxI6+Pz6Kqp5YV73Nwgdu6DoOtID+5kSM5Iah7oPvBNqTLKaiQpUNSDwneN3iTkY8X6kv/zUSzhy+TPytTa6XAfJVElUJRHUdsy7AduiFWruXY4niAXGGO5xZEKtYu6hNiq30MYep4e1dmoMPMIep9erk0beJuN52WSW4TI5ODZFcF7qXdK6/AAMZH819Nw7+fH8xtb6IC20ILQtF1z5kX5EK51r3LoaegF19qaBvTj2ARE/svr1qoTXOQCkwe+0FQB8EkCbfPb9RijsbqMK2yJny7GsnqGRfg5GQrGYL+6yK/BRTETlotwcLfa9ER285lHmevjRrstqqQTtug8G8JsRabGHgGdylZ/j1mCH1IOyg63vpYnzenV9sdEy06cdKg8iGVru56t4Jps6YqLM5WkySgiU6Fj6knyeDYXt7TkUUbZo6wK1hNCvkgOQDES3Syz5e3oL1EP7Ww9S+34SWs5at08wQryDwLFUwFKfz3TQikrNJYAXKUs+vcPG2Guco0jVLCxMha1OfQb5G85PiRk77keYd2E3TtqpgJmVRKeCTt/PjXONfoNZjTNxkQJqCe6/dQ6NuOb4Iw+b94Ktde3RmxASB3mTJsTHomnYT14XMb6dHGaUhn/+yX4Tr16TSKdKK6h5XC8hjDC5zVRX4rL+1XNF16z+7vR3JiLqk8KF09OsLkeoS0ZPieU1kz6GltdsjZ9GWk/2Imyd6CJr/26RAp/m7FMNchZ7qfVzUjvN0Vhsw/jJkypDmsgjUSVNlVMtWIr15uPZE3sJM0AIOzWGCuWoKUThY7mXlUkD7npKPTQII5Uhl9Z6vbOfxaA/F5bHVe6sYwZm2R/zD8Y9La7ICm+ggZxFqn6aWKwOYVSrb6s8yFgHRhALhNp1ddPMmRKsaHrMLBz6otWP/EtK+ykm44y0f+Bs1IJ29fp1cVaNe8J2TELV+PDMkAOPULdjQZLRaS+t9mBEMZIIJXmvFtP/J8AnQ/vrQBmtr28dVYHa9XGtpXlKMrlMOvkMKrQ0+KLFxT3WWzCNOkzRBoLet7hlgtCyGPQXDl2fKH0IPQnRm9F2aO+KTfhyc5tzfLj0WLH0Cd3MvujRg/YtWXwNp+ggze89O49f05jlUuOzd5b8ri2iRl/sLFaMNJTgrtedS6ojRTjLET8yB4UzHPtScA3HC640bw7S1FoKHUoDih+k5hlPlDzHUpjz07mM4HW7REaXwWSy/zRICamsscXbAh0Z4zuTu9KJ0sDH2PTIJBz/mDgMc+cI7bp4WDAQFnA1qmLeGg2G7m4bvyxEC+ikkkLC3AINTUYUVBa3WdxqdVZQOpjettXV5xpNHH1UgWbNSehaLsoCDSpAWzwM3BN2GAmsKipclOfzeeAjsuD6Ylzwm4oN27mahEd2UMUneU6znpTQN4UYzTgM+kqCRM4pj1eYu8rKURZCOlSnjar1BWwOCKkz9tDjrpmpD/4gtsv5lN2cKXI4FlSSK+ZEY5RPb+T10IS6/+Em1zcL+vWdcyS1oYE1f/hJtpyUWXGklVBVKJI0voiLX2XftMX5u6m2AM7IIq+MmJl8gJfSiHnrs6X7yi9bce54hYArU1MWONbLRJpkLSoLQcRwDGorgYRttD0pdo2BsoLi6ySmCfDwCd+90ijegxlUNvkU4RNG6fA4aWFkqIjB1CPPkaKLL3jrV9RyH9K6GDNDuYoVIs4QyfSL+pP/CBp4zYH4SWk5ii0EEJuDt3iUMKtllh9v5LBhRbxwHGd996AxgApFGH8nuV1UCYBVX7vWBMBs1fgf9PVG/FglNsQqy46DP5eErCqaXzUwMKUKvNUQErfDuzjB1KSUkudGmAJj+Rner8LH6zAfLcYInp3tDGuSB8UjlkgaePIBOhyIPbPZsNBL6nNs74I5LjuCL27YV665rNXQUBrVeNqEpvwikkBAziiV3QQ9wUROYlVPs+dBDdJxXxYrL63Ytm0t6NSlmqk1MHeRY3VQIJWAWSdXJpC9zxH8EbxruuiSSINtC29ooiZhDca9O9fiZ/9tKVPvCCE+kfanJcjhicpqx4SZ+hIRb5D+UwmTlJFLk4r6xPG28Zd8wj/civJRlkbhH861nabKmPu34G3Mmo0nfR18ktwQsqOhWw665VRQpn3WfXy8wtiwy2RqJyZim7dRFQPb+wt5Wi9AhGoWhAHaTJgbpxesr5AH314kg8ZgCMusUZU4BepfqB4n8qNa7l6xaezUw7mUDiDA13cYTDwd8H4pzWs1vPzPQzZ9fQGb6AhNVFQWV73U+/5fOMjn9ie1/vyY/4Y1OArS0zxQ2grbE/bqfDQhh35HmnteZjZu55soPadbyNHloKoDiESWhg0EQQUteiv4JTRWCLdLS6u4HyWcZNJ3hKRs/u3VlrK0YASnJuOXw7PJkOTGbKsNAH6CvGrPV9bI/SPi9simTXPlhaOJXQb6reP38xwhR3VCTj9d4rar924bDzXYKiE0Eqxle5ACeQOmQgTJxPKxYy/BX7+Kj6fUpLO35Pd3IUJ+NG7oSWFVbhevKGQLMuHq7McrFX536Y9/m1GgfxT7naz5Ufwk9OYbAEX7nB4IvrxP/2qHaVFtAmaIwPtJBLgpdgWY+n7zuNbRiRTIkKT70WEL1Ngx5jVEn8xX1tgDnvfQWnqTVkarkBWAAQJaFQWwETyAn42GQIcnq7xUQ28ysJcnU5DvZEOUcYXDMCiFBW5KXvJSkzz3g9Uz5H5JkbLd2n8vcxHuibkRwbOLQxCB9yP4ArD+fRI0vcRp7y5mx7naZi+4RTXL136EyAAEyzD7jf5t6Nf7vj+YukrzQHxSCcZkd2sNAQRUq79CwUnty6qIllXX1rDObCF1UcAGbKZsaWETZoZ1lrngBWf4H5ICbuUao4PerQO9v8x5RYn4gYGp8E8uKvMEwHgRieJyIhdSwEw2oY14BBsYipYeHebbB8UB/xtlp3neA88oNWMqIYcthgzW+ez8pIIVNRVEYKz3p4JMgxAYzAEXdqisRad/vUxxuKXomb5Sl5cZThtEJ3es/kTYAKOxDofMiIntQxP6q5t4PtvmBAi04X5CTO7mR9zm1ztW9oE/cLPzBd+VXWhhMumBQh7cj432n8zlXrE6hpcn7bB5Rwp0BVI3BBl2dYWSJwBn/0b1vEuR9tSePD9xYY1ib4jikPc5sRVuIwrhLDcaoRpAH1/rX1QapmW6zqroHZ98rkDW0G7N0MsEIWmjtorFICZItX0GR08v4kIgsjXy09stnS98BYJ5CGxSZ52FHzbjrWXYRbm8iGiLIX5YpYodicSFy0bHKy2wSfDDAoAlzT0FATz3fulQJihFSPZEIVvDjgblnCDL3OIyBPWUnye1FgAy+/hJGH9uE7Tw/L7LlUSbRrde7zgFgdDz1I1sdghhIzGyuoGekJiHp+1cZWsuoqviGQQb8WCzEsOPkTrHE9MJzeg5ApOvnK0hBKp5QxHmsfQJSo41+Qps6ct46LxZVG4U7uEZyY6nEVRSXXqZUXyhcsCnQGGm7sx4jrgThnmQjvsdkTX9OkrUoTjmwcn5uwM7YCQwRMU9VEaIEZKaYNLb422dAoTBIt3jEoH7gJ9axjyQ3DGLZGQJJFJbTgGwjfIC59Sp+OummhgNBW8n1hNBrbfpewDwnGoLixBrxDiiBTJCxlO+wT3ZEkHyEEVEs/g7Fox/kzTiYzdrEj5Hdjse2IxKOHPU5dIC+/Z+66A9lbWzbcxIjox5lfMMwEMAqPFmoBkkZUKmPYPGt1sz8n2Kw+b5Q9a6Ra2MJiVG3oTSs2GL5AMJpNs6dTGw6vZQir7JBgRd7nU2q5CO2bdw6Afhm2/ongL6fWLySljAr1yiX/6a1jVh0A8rvpMbtQ5ckrQKqqwwPwRwXsx/UMMWfDp2UjnyiVmVt13svD5spZlG8lKp32WJG/vu97uW86s/cFz9AopGkvSKv+w9IJ7jvgvFmO0Wp5N8TfoqhslBkGiPVh9Qmxk8GcJX0P+eGgjRrm1M8JII0itWsz8T9U0QV/ZWspgwDvOJYce4uPbBWkSaentDeFqTBEthiEYDf7zSDepvXY1NFsx6UYuF5wd+/W1geiVSwz01XsN/Y1NtY2MR7xmgj2Ev5pPBiGxLTc/JbqcL2fw+sdaYRPaaS5eBYfua8UKDjHojFPhz5peNfCH5p3YOJxLJa//4tUJ0BRbNAojMVU2whT2rcnp3eMhtsEECWd+BgPlTEfHlaXZx5qsQZWwqV+75RB8X1dIFFtrtyIS6p/8XYTDq/z8ea4X+BpKEi2164rpRjGIETPdoRF8/UiamZoFWo53YX/DADnHeVulW2Je0Y6447lG3LEhXFWuZRv6HEYe5dF0p+E9ky9tznht6ScmSwIHptr78U5W4Pgi8QRprY+/uxiBr4/zCW8BS+zGq4UJXundIuF2336m8ArTWX6JRQUUioUBiwIt7XGjacaRSY5tncIryQd12H7UIDvoTW4W4A+IQsFBAUwyYFK3Ipw+t9Fjr5i0R7WXT3HgKzkaP+1uItb3IwuJJf6lOpl6anNNsx6SBAYKtE/3IozJlU5I+L1i8Rv80nQLLeZa253sEWaVEE+7PbKahbq+/xuXzJQFSnr/7zWrs7UpgGd9Wy7DyTwQJQiBtPrMSj81zQhbQjziMUoAAYsgNGAvp8oTF2sDnEZjfR+clUPYyqalSH2XzMrI6ctrc6AYAtf0Z5iANFaig1Z9tsUmmttpre+7KtvwAhpRW1vca15BTJpnVuZ/CMgUnWMzbkuRgJbM5gYfYACLNngotqNjZxtlo8wrRMgKGOCsbnfw/i+PuW1qcGBpayYcDYA6HViacci9iDQ7Ith+tfuS9dCcNqQIdNS+0y7y4ySO8OTk/s9eVVZLW09asYB64uChA8LnpRE+XvpQRkbkmch+HqOWfSFNUpXrOwSBifkX0bgnakOeN+0FHiT2Gjd+bngSco5eLMZhk/sUFWeqDKzaSML1FAEGJPURMp+c6QimiEnNeq+oFrG+S3ld0Wh0RKOs96woeJ+mtofopWpoIP5uK85royYDD1dKZMeLZJrZwKsRsQT1asq/bogDHzBcQDkEhKoql29XkuF6NkA77KF9DOPMegg2Dq4Ir6mzmR1bG9crnhmyBoQE+67rOgMgi3cMYea9hzZGGdIM6n1usGUErhtagmsTrLmIjhL+ODiyFFQzxKS/O3d4jECMoOZF0YM6jIhoMw/4UVU6HtzwQaFj3Cdquu8XOVDpKRNjb9dmwQt9UbmlLuG0YfwcMewoQyYk2yPIUhKSFMccddff6HEl4vYY1PJh2eJDh4NAEyirOEl3jCZjGkFW/J3GIGFx3eCCsfXQwVdCBrzZZn59HVjrPBYoyZP7BHtLlQ3Sc4OsD3A8Job+WSBMz3zIIYUMsEmTmZn9KlGCFpK8GMSgmHunRC9jm31Trc1OxSAjYv5h4ZkUHFPERAlhhl/GMlvWWXRzFm2P9jtTcSeVnFSFpwTb3kkNp7uOmgHj5G4gNd/vWm1kl6cdkMxrztG+wQkNQ6UQA9M6Qdsh4F2zT6BdGSeLVWwTkEq64Cs9QED1xL8V7i3NRy54xa7fHr3rZpiNAhg7q3yC85f4RG+y77wqGggN61eoJWukk1rOVOaeHLGCzg+O9YJtmynLVvu8f7rS8Ru90Oy1VzTU8qlGWYImGtr6QOzmKbewepC8B61BWVSUPgXM/7Q11OZ1TOPNnfmKtn5+iCYqlh70piOJpu3e4u9Axpi/HWsb973Gbhy5EZKw0N3tdkqhAA3ai2KESTwAt28px6ae8z778+OxZ5boMpi7TzG4tgFdbhy7kb4fE5pFMOgdj88sDx1lq94scd+w/Q7XpIKY+IiaXvY0LxKLFsxOUtytWUcua7Nvla98ox2aD8VL6W27oQ76S8+IiPJ4p2jhHox7dkhLne7zxEQzrZCdMMd+HqcyGf3izG3PYMmYphZ5NJ5GPD7yTFVrjvTuxOfNODWmr/QDqBY6WyyFAO5yuVrSvahCkqdj6lJG3XPuaJpGHx6elQqZag56gbC6YgpSQY1ySGz/Huw/aJQSNSry3GFW+6eG/8IyuXvyAUxZD4ihufsrUz4EC2rkgiEpAmJn8vTR8qyv13waYIImQlY6H+dJ56zk86PE9csPtcr1rYv5QjhoeMPCCTQFdogv7WayEIJQedTifExkFWxmgtZFdNs8vlv8EItWUgp0gLsdOXKczFeWjQTsDT+jtNfI+/7GyyVRgAKtgWtbBT7qjnkRxToUdpxFp9gLHXQX1mcLy2Zf8bnMTvcI+crLgZm11evkfsKsQnTHD2qHTIXgoFmxIwQoInWnOgAlTfydprUOqt6jlqvZslcbaQ/5O74ebXWxyjzNJyLYsVMjyfQFq1YSEyUg9UAgJAHFzrrkEUEGKT4do/dYRyDmPib5Kn9db9qKhx0YbLQH/HPPeCgD31Zwd4ifHN8nD62JlhXpLwbGFhmJoQMIPw3P/QQTj02YYpmDHxJkIOljGmAJ2d4Otni98T/V9vmvxE6Yv2l6Rfl18fZi9VuQgtObJfmsVEHMMkpD8xXfqYMdBKQViFl/pN9QyquxZJ5dYpr64c+eSR5R2/gQaMfNOBrBn49/cJ4TG3dRQgLVf40Dk4k8VtevG9ve8Hpvf3t5I2WkF0DpV+TBpOl/I3xQ8uMAJGuQvI48p+wGVQm2wKnIwHDiacer9DWgQ4Eg1oNGu8ZVCaDnphhy6tOyPZgXUVZ7qiTLoIvkeJDu1ucRSeY2vIRi8YuH77Oh1YihclusNF8zEdZ54d6CwtJ91MyDZjU2EIQ/0tJw/iohlA0VgWMc7+zSqBxCJCHTJG3imr4y0o81SYwEA122iVDwisfWUu80IHfCa2RIK6HkDIn87jDzFJ6uJhJAIUUmvQh2e219kKIH1Gp/pjJfng/+RskKlbNQfy9xRGtO/N2E0QpNoBubSFnVQvHQLaahcYzFNmjRQu4NNf7H07zjMGtP3TcVLdDX2KUCA1qjJXChGL7X9I9vGLrkE/5I6dFP8osOFt5YL15S5ZNr1FCvjRGH7RnFxN6HSIbyfcAtaMJY57wgE/8YYUIyd+ZOGtiZDz0IxzlekToCXSar6QYe3uAiDj3okPHHTEreveA8VbkGdmX8DKHs/ADVSaTDOUV67lyrDPkrI4QECNTgK2nT5LDJUQpskHRySjtMtvWN/6UCQpm5+9PiFaX9+b4EJuAVrKJjd2pcbDNCXG1DccCEUaFz4uCSTkde4sfLzywedciGib4ZyhSxVS2YbfM9abTntrChGIJKXCqzSXHfyN8Vf3dHWYx7FUzA0eX8B3EftAz8+1dDHfvY5jfkVNBHTZDRsb0Mlug/Zm3tp3GvFo8PuQqiU8bIitCsnSTJZEFP6siVP6X1Auv8sfOrYiq0R1lQjiY9GzctPNbp1DxJYA4aLN2ilb3hVxijUlEOd/N/utKZ2Vp6ku6RfyA2nPMJPiVkwH/lsdtxrfXjKqhqc3lWR7fSpPIercJVA2Q9Qq3aUwmU6iN+RAaaGtdADSUJWU4KfkoyV7oulyU4MDr8oo+HG2WMs4LaFd2vurPpwy6rC5PTkGFn5xiyhr765DNWv1Cvv6GBDlZRv+C0LrB9JYz7cfeKcgmDeqGRngHSMPs7R/JmTuoWnfCJl/aSzAWVOvJsu0yEe98eGdkAjcbLRVYbj/xX4Q5mlLGW5mK1a8YnTtUR/iaZozwU0UcprVVcEGDzpuSwYwkREFFzYiU5bae/674tu2fw66DM0QlZ2/WAaL9fLuxL30O6kJIM0ruZwSYFouMGM7FQkH7x8noKWJoTv3aVUAwmKlPLMUL+5fN+PUDDmac3xWqhl/DwYPmuzMdZRtSpxD7NgJFZvLsP/qFYprMHrVT6Qb+3An1Kph8g4mGFFlGkUBrZcQ+UuzSEYX/eeldLsMuicgcxHJAbULULgvbtcrNupnhEmdPgy9s/MFIjLwz93batPjyJbwa3wgsH8y0AoNEg1n/8SvGMPfngpAQ0fPjlgsoYX9nUL5qnKHRUPxH7iav8PJ/zY728KkFZEIvLSZxgAA5ByCm0idWKhSymmOo08vPtmEwyhRQg/VUeSH5B7bQxzRVAd1LVq2DlZrCEdVN28Krd1YnVbfiAc7oMlvqnir820i7E05SDE98HwCWxAYFthcecYPHVs1mG0ZQHziymzXQkd10ClKVx1wjMq/b71i0vVDZ2JxIgQ6ZyYTyqKuXco0v+MgwraKzJFiMqi4q7ZQSx//VVTEcPqijsHt5aPJZPU01k9F2fpGUertsTfisaLkn5VOXMyOlgN/JJzA3U2HqyKKU6q5+CgxizYQvBdsLb1kb7FSVSsIoALjMtxeLVqfNr8owxZf7TJqe4Fzn5iMLMlXzLSDtTQz/d2YMG4dVFQVN4DgZMJ9ZLmhIZ5/KyCG29DmWIvTs/09R7EQ0AULiAe7DIHB0g8KJLgqRRDPzY5Yaj4nxhlXXAGvC7gpZ3wYN0KWAjiEdXLX2Wqkz/fn+djK7BI5fByuortr/922Lnorm4LCvGMvaxHFmKgBFEcKMEnmqANmccacTclt3QJ1WGPYLuvwKuD+Y0hj3pPtzmfuNebyioSZNqSkuhdk9OD1BuQe94kVY1SvTKLakXG3AR5aL+tU20yiJ3PYymzKUl8sT+AICpyBNb3wlpJ/S67ff+FYhoXvJ6a648eUtw9cqKxiGLPhMdM4cPYwrO5CFQQQ2wm6U16a4KUUs0cDqJ6VaW6wVNe4O6ekSzOXYbFAC4/yvfrN50pJ2MPJLWE5Lh6lMrQ3FSyifoj4UUHiec4xVsu55tqnbnbbZe2svEO6Ur9XrSS2qxHlntsthgIuq/1XlVwNLIlkYTuzvLEav76Ir8TlpvHlNdwdNppzGxN7Du0JlNIVBKwk21jspldtInW7TApdasBDRQ21qnXt6w26TAJaJ/5szcrl7VPEN34fXxeXpCyUMljMzj5PGob9C1COgQYjLiKIKnL0MKol+0AGR6g0ykh3gfzOatcj9dNtqXG3dFp30nK1v8HA1ZUf81ZFR3xz/I5x37iW/Q/uD61sVMtpb6M2ZTTchYRWwo0AtOS0UUM9ubHZHr416+q2XzttpNAZ2c0ti/ZzQ+vmdwV3V6GUOYM77KMM84yTCfsoksR/gQZrCM4ytaG+o+5IMkpljjZ+QUGCupxlJuoAn5ixpFs/VVn+2ouMjWssvx8NDr4QDRQfcVnyGWK2rpwUm5LfDJpAEz27fs/timxsJw7HNQUg4/+uh8KFCeAReYPYJhkKjcntp0gLhImcpzGJR5/rkvB3ltBHRqiqadZuQ6hzis4ag+VnmsuS6Skw7O8d/7EifQZIcc5mX83Oia8yC5A1mmNfH6HNpWHNoZLWKq9Epv71FxpNMdq9b6vPif8+0cfjjesF8fBi5bqmVTyBSwRchxt9UInB+HO4kIEI5D4zqps2C+WBB86/+tOli0io9xBbpfXrmJqpvg40ZRXS8BC9aaKjsm2VSeNcC7iizRYXrC0dFlUP620kcwQsYu14jijzrRPIZplMelS2/Pc/k1SeICtbYcmlsD6IJAePL/9hQdZ2d6jiw50dsVNIzhuJeBLrOYj9mku3yCge/FaPIvJ/HRRoh3+1lHYeX72qpJ/6QX0Dpv6TGp1cN0YdwJvh0ebRN5hrN6TUnMqxiEewMPlGvObuJpAHA2fJsz7wmXHSYP+Yz2ZQW2gPsh3ex/aAurzvSzYDkdWh3bhTBxyEbM1EUsUJgsdDdqeUlgBm2+uwhP9s4/5d32ecVBy17NdZO72iHqFEDWqdl7/KH7FZfCTn5gTtVDbX/PDyUuBf5kJwORTXotWsrMmErybb0OUNE3F5uoUQHfHKZ4uHy+kcJwW19h5W6sKw5052G8BiJNWrdOGf5iPLUB6fb74EqhAC5/lnFRCRMxiGXhfpp4FiQ7zphIU3gPzTLvqGa+fuJJFsxoDLIx+ehiie1ATaDZPu7nxwl8/f3gC40N2mxOply9qyYD3fslBJTK4hx3rHJIlcxLiUpdRjt6DLkbgAAj0oZBGAG9sR7va7GYLCQm2jXsdKOeq6/LRaIwDrAie/dtn6PYf0JID2olY0QVtbuK+WwncxA9ZtO0pya4ApmvfEIvfZ88w9bc3yf7sAUqkhJwfRX0jAqV1q/abzYvIoAbsjx3tc/IjFbKbBg2Ktqs1y467XkNA+6A4/zV21TJNzch6575qtWVDJwlyrqbsS7TVYA1lxup9uSJrvZNtcHyzxfiwkJTQ4hwkv6oGr/xQ9vpjOf9o8VM3N7a1hZx8iqxHBfpcYYthlEkHiuIvFa+CT8dzHsB1y+6lqwWceF1SPHnZUa0S7kxHTgZpqKDqeAPnsH6crkpC3Z18LuWjgJIRyqEz6aD9u5sfjTBH9A8n5FCB/LIXTZs+KXd+F9DOzyKE7KRwA1FdQWh291KpQXeKa1BKCyG+kTuWicm/JchxsnnpvB+KCoGZ1hOPyQaNno+l5PyG1ooPAJgWwSMN5XvmPnO6mFyIbJsZNk6PelIfEPs/n4zU1CalWgXqV/nD1UoKPn8+S/BmBNLhi19JjT/QuL8QZZ+9X3tjTAjYbAY8SR4WVO4Mby8h/HIjC36bWwyKDXr/n0gcDWMMlOeoUbFuXb6q7G3YzifDqahdIgMYuoQjNy9gUCRfGfvKsbXlrGgpJWSLz2VZwipnYYiZhJ4TSFZ5L5oEaleEftJ6aF04llRKgTtXYBBnd6vwI3RrbHhmMGgIRNlm6RfpHFEvE9rtcye9lPWOhAACvo64cTcoi3bGq98oZjkAbAz0cuEAUSSQu5OKg9HuvPtHTBIXcdCg0K03UFNU90/9hct/II+jewj83wcapHw3nxwKwmrfdQn9zFg5EEIoBbez054h43tg3Gi16Ty6ZKfOTb7HAifYwj/UFBagqhD4HTOjinqTiN//XrosktJDRDgGc5TinLHil1oSFiksxgk4tWZijJK/42ao5tmkFiL2IB6uaMFND4fz+j37ErLi7JtSxid/9ea5657gbKiPGVdX6Cl+BaA5f6u6yViJgl2dpuP0o3HZTninSN4MR24+V7CasKiSHwJpMLYlNOYN/2uqNbe4nRMIYMKdYS2u/0KN/ZcSofWpOAtLKH4JtKHjOVVaahYkX6aZ1aV3m7b6VeYR9OZ6ISOUVESTLP2IKsRvqkWUivxB7JZxxJrZKnffDspkBP2L+PebyxQRX5pJDhoyPCq0WJ9eqYeN7WQCmo9Z1c8WvDvMrnyxXhmWRobMeXo5c+nA8c1D8KN+KA+KJjtDKJ0T6Gphe5Ffc1CZU7UrODIUWN2FoOqGPaop8TgGoKjGTDGUbHLY/JS2xhFuvX4MxrXAjsOnOd0rloqUHPwo/r/EqBQK2ruQeUKg14f5/qVC7j75PxmSjqA24Et2Zuo8iq1tF06TxswHpPTTZyEQxk+Vp13zkkG7lY2J2Zaolbdk3zV6j5NpWwDSw5ZFaQqtisS5ETYEQM9uEJQGmB9kzF2OEyOjtXnHsRVC0UeneK59C5rvG6eSMNr6leLsB8jFAwdzL879azCFh8tz/Z9DGyvt8LbwhynCrAzxX+xJUldGhXqA+vL0QWcHNREY1eDDkclogDKri92LPzhoA3AmvUIEUoyu650jdL5l6qz6kvDvoTMKwGrJ8NIrKw7/HdIpagOOJXD5QQXx/HUDIZ4gb2XVOa+C/Nxnk14Ggi/S4oAbMz1Qg9kaYNYJrL8XDko/WslKA1w2MWDChVDnGkR6HrPrtmd6vAnaYFI/nArsYjaUwyF/ubqafmHPuQQ642wAKxhuGfcjsACAZLyG9NoOseVGRQmTRgCnhyS3z+Rswwwf/H9qkekRRrXXkqLYQtytrzdCvL0AIp5kA6MJ6EtwaDUzj7vh267LPEWwfqZVxYNBKiheNTJxwbBZcyy6iwoI8p5TZ0xgEY/ZMPJv7xkR1DJm9Ql7fj3W6h/vnz5opit4694KQ7bwQ3rxQ9wmuOF+HfqBPbMnUUJgr7G/8P2mI7WkXw7Up8hxqARlWgAx+4/F4fITTS2ztuF9ZTUJ9ORs73R8PvKQtGccUDI6LGTkD8sdGOz7gND7xWlkK5MKJ7YhTg1b4oaeiUWGUs6Ba5PDUOpDiNDYNRjIC4YmBBZOcrXRAZwPbyby5s/4fX6wfbE5jpyM3sv8fW3+CZGqBqSSLAghpEZFtctPJxPUOVGod6l2UFtngQP4dl6fiAHidZuyAnQYpD7c6ML8meo2FT9DwT9l0cabbsBZkJ0txRnj4cDqCsjm8IAPHP9r6UihfFZdCF8fcAQdnFL8MfO2HnuubQ/vlYPVSp9dqzsGmW/Hq/PSav8nByi4QGfIgOrjKfOScXkBxJ0L0f0m+21dAstUSO71hAanQRFJpVHdHs3D20RnxU1K/4uzZwMkJ9I8LupZM5LztkimpMUtZTABbqOUHsEXn0hhDGai+UxfCW+1X9WBsonToWvU4qOUd38jIn0w1DUc4DZ1d+yjf8QP64Mo3bFgUphTn5cWw8FmNIDlmVJ7j8OGRk+lorRoXWAEP1j4ouzGvuhnzhVrmZjln6rbDjUhaj7gRMix2cIbTTF81rjKgnsIk0i2p4XCCpmvfFTG0aeepehThLPYPjYalnmeHDTUmi5X+IIzwSDdUO8X+vkVAnTtpK6demH5/UnNeludmYZ9uSia6rd6aBazggSbZT3q8pMg5tKbMwXs3XJXo1M+ouI83q7SwFvEaMxDLSxbdn0OmUdExPxVFpt2jWv/n+IbWxoEzDcuK2hVjgtxU8FxzlGACoHfHadTbtYjpdQSu2rWdO0ax89NKhmgMVv4E43ivUZ648VUidaM8b+AvRTAnDrz2XU7h465nsMwwHdnW9E03czKBm4wkG0JMdDy4GHJUdnMAXGUp1sd1vK4IXjWVXNtpwI7Knz01TtduFaOqQomH8Kd2+Qa16rGBiMVqc8qaw529di824QJIMalPTZhxwZxovTuuke5HSgz11gsb2eE4gazx6pp9gwsffT8rht7POATJnNoUloRHNMjyrHDeATGG/b0d5S4kkobncvO4gvGDrGCPue0SnQeKgaIAzEq70w8Gjp+bniRaL+R1IV66QGi6GoVj/+vnduJ6pnoD0MQZUjEpqc9Tffaw2xsP8JVDBh41igYnr6hPTDY7iGpI6eHL2BuLuJQBIj+muXK7bX5UXhEpRU1I6Sk9odaugGiu1NM8p77q4DazY2x9QruY0g65rPSu5hgKBARVERZTfdesXFtTiBJmdnMKeexzKBE7i5yYRZezxe3TsOfF3+IjeucAbR+EaA7H0X6cWbeRzU23bdYFqejXcjHotYC2JtW3+bTN2i1vp4g1oCfX4czo33stnJOPmVOK+kwdF1jnP+VHlyX/dkY5VlOhWYcK3jMluFsaKJ+duiRGKTBy/7WADkbShkVKDPis5SoZtReK82WcuSroZkkb5k/mC5gp47kzfihNwRoWQXbxazqq+B0HQJKGRJeFDCq+A6lg4Ytkh6keextK4KRJqLwaB4tQg407ZpqBMAIPZyZA2cTX/gk4tE4BeFolQEvATMuDTrD3HeIgH8HfIvX/9xT9ydgVjQTluQC+9bR6QAAGMfHT0y173EA+7fs/Vq0AH0vS9hVyQWmeh2cyIn/1Gw1DKNpxzp9KRZfDFbFrLJ8Fdaga+Ql7vL2DTj2A6G+RyAkglvIABAI4Zo7PRH5BpFL7taJXGszXVL+67/wbgDDZXLbuisa1txlYVU13ZxJnF0do+6yf/x2GEpP4pzdc81zsBF/0JZmKiTPfZDo9GLBnqcxE8+NTNIwi/r2P+ZAOVHgmxmKQUJhCKlZ6+UG5oLzwfpnMFgXhQPuPdEfA+IH2GIBcGN2Een/O/1RbEv+k3g1v1cZKHJQkeUroj8CYlBmxcieBPN7TBCTIrurXKN4QfAqTu5nrWd/Ad+G1wpOGhlGTySRZDxaRXehrQuVj2KZCOKUSwRNQFDwkguvHumhgf1MIQRLL/QRZxx6CH+3Ss5nIOPq4tpjFR+x4koJN3PsM+iGaps1ojhM0Iffr9ZB+OuKdUlo/f8qTTYzNmqqj+H9QJUfiegIUv3R1Mkh5mrzBEMwABCVe7Hvq2NmXFxE4nTPbcAehXiVdHmANEIdMIeqRahSRJpoY3XJiamd1cQgKcizw/Dqj07Na6IY2Eunv6Bx9zufxbFobrlEkoY/TmCQUndozD9Ws5WBJHvu7VctkRXuxSWurc7jctPZYfnSST5lhzc9tv4GiTOqbmY5GzNoVPINYImM7WDrAjZ+DF636UJgsCIXuAeXQb+nkCxt8C1llKt4oh2nIV7Xxjl1T9GTsAmfypy2+V6BGUtT6Y9AA08gKjZwsYSiq3ZqbXnOVPVy/U8EosDQrMIUvPvFnzacxVcbSsTntC1rhsM4uHl3NyoZQ43T64yFhiQzhOwiuvcKanes2BamXMFPgSn4vStYtlrw/5e1TOUGcpGx2TV00wMKazJzaDvSni6X7OZ/z3Ic5qiqCQPI0ybm9XGB66nAUwPxXDR21aAWiZPgEDwyLdetOuh+B6Wsu8+/gHpjlbeE9NJALEwOhzW6yqF8Gg+xS9bwc7mWmnJN+hzW6Dtcdvoitmwkul9OpMgRjybDVtoof4BcJONfIkLjTEIADTh/eC1fdRvAD7UnAzS2qveb6BFYtYSMszUByVRIJFSZgL5j31M/YyB0148U97xtlx9dw67SYWzpWdVy/2eggMWYpckCG2ZhpXoGnHxb9FC5SBcov38W8iFA99h75sQqERIk3IaMmyT5w+baZ/Wuz8GjbLpwyPCPmGuWCc8pkJpgcIEwxDO6vy3RD/zDMzdvn1iWfM8h2x2/jk7GP2Ox3R3C5f4AtJIyvgXd8GF3QMeKvJPWB7J5ymI1s8Z5msFSKf+4KehrbaKvP7xmoljr7rDmGW6I1FSw0a3HcyB4sDBJT/EVTHZz+2mcZK/oPiIKRs4qDKeaGbIeTbH3j93g0lKNH+ddPKbwEpd03c5gwArLN+XP/6yP5nn9fgxXc1K9QF6Q1VRnoHa/H4VBWCJJy2EWHlMpr+NrRP9aak2Z3UqiPoqY58JIsgdU0PCD97/mhOJajNKua+FGfHeI1UcfBgLu8iyqDFZtkkGaXM/DM3aDPJL9wzn9EbD0OYVT8L6sn2zYqmpTx8hJY36GBMAAGuc1hKUU8cILlB++Xpw/UtboUCkkwGjTgv71g9hlMgGANVzub+Sa9LDNOB/jxBqjMmoutHp5hM+n4Ck4AaNFh6iHPPhe54dXGkTBHvFSGg0Iag5lXzvZp0z690mWasGxS6EQKv3Ac9DAqrz6E/lrR/rwv7hM/qIxmJT3K+DvKFNhUZTIQBG/b0pBQpsutfkQmyl9df9nGNveH4iY3/+CXUw1CdkmCwDNZCkpeK9iOYGmRqBBjSmyNRdzVY1Tfh0abMK7njpUMOYAZ6NFqv+X0X7CErqnxV0ZXh6WqgJFN20B9q2aK1UqLKmKZTAdrb+yOIYpNTY9imgLuXXcEGalvX+p1ZkqCPle/04VDYpORI6PL8exBXkVTrDULVnlMDVmXYHCw+XUAAAAAAACo+7I38gMEwlw0+ysbugOn/+5hPIUtiUf/+7gDyLqTgAye4VzJlbN18lEmop4eKdRq2GbkR80DId0Ubz8c9+4kuyiPzHgK5x8hsar04+8gouezvWm/4Hq6D2MdErqg0hubsHgZaZgrfZGe/AjUm6VQ7mIob2OKgstZdl/+/3vspgmRGboQmGZ/kP2egsLWDUcm8nSaAGD9a4cJD0BwMhuBBref6spojO+OQRNlWNxyapTsaR+Ya8jLSHYjMjm+7h95IjHBC6Pc6WY81iN58tOnB6d8RufIpitDA39lvhJBWymSjiNnJEMkN3p+ssaTwOnBBhSmADXZCvyjeVRgXVnV9cLEYHsXsfl/eqFaM+hVvHsPaU82IpF2GllFugflApoS5P3v72hpXrcVzHOlf81KJg1sboCoGZ89SLQB15glcmdRY+KYnEtR+dg4kfXuzgGbe/1k/ZYyUpBOhJQuwf/jcHH6tLmSCIh1jiR0b+T6dBurXqYcptpwPFWM9zzOILhu1soyuA+aEvrN3VrDCTIR056SAtvncwrAaGZ6KbXTF4o3uIeZGlhmd42sMugeuulE/c1ZvL0Yen0slYS543y9zWVcK1+LsXzeAYJemeBlhvpiS2+nUVlAJPJMkVzbKz8orYCAzcm/2EPFj8CntbUpWYJu7KJsFL2oyll54ffp61ZeBUZsaudf3SWbwjetpbmHk8+iIxRY02flof2unj2QtThYHhQP6LyyldrzKE01IqFQNcDC1pPPONyn2EwFvYD0i5NB5KkeYvCywzU/PM+Whgk5cSIF0UAv10UzWQ2PRsQvauKwni7FT4sHECGWfTRJUXvPSRQgQB9o1DB0TvTAeIc3a8qIRARUSMWchwpmt2g/1iDvdJfpjj2n70h4QFNFj86JU0KjaPeUbmX/0enurbynU/upd+Jh3lmOIE8744CRoXe7gBtKKYna49Ts1REkD46rIyO03a0Wn25tzAvFgQAwfTaQV4+XQEv7U6doE2/HDCUklUK60Y3786UJEg9U6urmt78ZYYoyKe8qjFTq6XicVp7hwf5z/F0QKKi1u9dkoDlhTPNpLdIimwvHPNaabTiOGCTwosJzaToKBEFAoWkJlgHzXAJ40flREQAq1DMeCnj+au+HW5O0GJRco0WFFpdWpqm0r7sM+/Y3uOHv2+irjagw748lPNT9QSMonzk2ZJBcUqueEoRXLsuPSrROahJ5KjgTCJ/WNhM7a/mhYimkPsZhL/RduKuguYwxRAg+Q9AgOJcG5DpaQu5rSHiGBE+Rqx9UMmb0xb+EV8y99z0pfPGQ9eqcDV1o5/BjmyEx2Tv/Y2lBNDsww+uDqlApx25hLpQl7ig4oa2KakyFjc9c/ne9gDKi04Wa7XjNcaRW+cd934QEj4ZV99RqkhN0maP34+769L2r2eGFq9gTL3xuBXTv4dYZMmtlC1EusBO3LyNA+sdJCLM0YWJEIBxEf8Sry+QnGesKvWnUTUW9Armlq7uspZ3pm6NShSQoDzBHYTGGLDaM9CQ9HAgcTPXUT+bFCav2aLz3Oo0Wfik2jCytOpXagmddET0PBrswkzCFlHSAXaXK9o435pXU+YbN4YRkgkxSBAGmpGtJC/i1uM0irf34ZXcwfrrt0xci2CO9hkMf/DHwBOUYa9LDVKOA+ReoHQgvXTixX/sDStclcN5L0G90cAAEbZob1Nf0IyjgFj5r8z5UgWoGs6pafpAFfaBlRCJj/4/KfL8jgNh5UIswTbk7V7z1a6CAHEqYHhSLqAKH/+7/C9UCofHqHoR6zjMBW8QR9l3FN87nDoSaa/Cq4cCR2kXUGCvnEYObcPt3lf05tdGJhOVp46BalJ1DABV3yJw4YfSphG4/ZfnXPNS1wcCT/n3a7gt5VVEIzxhZEV38wpb7ecp/ZRWDchquqCwNUikhdP+LHz/FI882BgFrVZA9GgA0Fl0eoBsNP5dSAFdoWDl+i0CaHLKGRfJMk/jTGY3Ygca6mtkYDOhl1+O7+8q2ClYkegcz/lilaS/mYmvBRqJBpdjwTIm9nhrvLfp7utv0W5whMM3npUBkSgOpn7IoOC0EiLJj1OrIjsOIr1A39NXDSUfNIuSRBPBzMfXrt1PzSqDTcJN5opmqGnJgch81wfvWDvnI5ItMohTX4UDHCb+QYKiF6+RRUf4aBGbs6/Y48PSfbV8YIoaF/5//x+hXnmZjkWrrg5ssehEFTYHpFLCPzCzoWJiIEnszjAeRFdGV/E+4MwQe800syylVFIC5NDSKRCw6314+5aBuW8H2QWuhL3/+93g4ZLqaALNn91zu34hhrt81ibUpI6OjtR/nmW4/AwJlHuVihZ4fRCr+hxv3NHaT6zJAeuDaB9J6N2yxmrMzbMZqxNJOSFqUs6FrMwEFRT9Uocgt4aK3Gs3eK69+vZnBDPg0VCsroKwQHApN1QtK12O5qKsYw16Qr/kjHpkyGoo38lYQ2Y2NK+TuqbNdU9nPeaJxkm3szghDzfJ3vhBC5UoZRVpgRDUoFw2sUCRwtBu9pNBcjaMRG5VCAvEEs5eFFMZePgnDscY1jsQQUkVCfeuW8Ixav4X+24C+/TgVVDjBeINgBNY5aGADyJpe8+vIAH5/gcKO0TDCYV5yPPCTrEewHAeOptij9XHIO6B+xbolxW//nseMXYXu1pAFE6UYtjLUka/j2HwxLURnP8KWwZaGooQPw4RxrNjYX8IMn6gACUJwQj1tXq13IC0Pwq6/U4gBi8oZ+SZT2OlFUzpHaIf1ANDZL8yxcAp2HniQPbqRn3Vs2y4mdcakPbFAKolfy2ZeHGFnjxYQ33Fl3T+LQTTA/Jtn5WLhXF0Ddo40FNZLRlSk9yQAQNtvcKlJFwugEPQMuIK5VTcgk26qKhEAu8Fo5tyAeSMS/kqd57/lL130h//u2EufEBXndr0zXMP/jjLhWYHZTokkjORcYc5lBJ4DTpBuSDDkjmfZtZeVW5NXDteoMce9kAAAAAAAAAAAAAAAAA==;" vertex="1" parent="3">
                    <mxGeometry x="529.59" y="181.25" width="60.81" height="67.5" as="geometry"/>
                </mxCell>
                <mxCell id="14" value="" style="ellipse;shape=umlEntity;whiteSpace=wrap;html=1;fillColor=#dae8fc;strokeColor=#6c8ebf;" vertex="1" parent="3">
                    <mxGeometry x="520" y="40" width="80" height="80" as="geometry"/>
                </mxCell>
                <mxCell id="44" value="" style="shape=image;verticalLabelPosition=bottom;labelBackgroundColor=default;verticalAlign=top;aspect=fixed;imageAspect=0;image=data:image/webp,UklGRqx2AABXRUJQVlA4WAoAAAAQAAAA8wEAKgIAQUxQSEE1AAANGcZt20iCnOzL7r/hOXe3gYj+TwB/9KTphWoArXRJZ16gKmg2GoScFaBH0lZTiyBGhxjojI5TKgAPSozLfJ+joG0baQl/1nvvEETEBMSX1J0W9nxrXzktmLgzzUWjFIdEBI4AGdkC8auCtm2Y8me/64gJSN+SZNt2W9tWRGkd1GXa/P8fHXNOiUAr8dA7QJCC2IinGRET4Fu2bdtta9sqpdTWegdASfYY8/L/P7du42ZbJAH03lqt5YEUSXHYAr32JSJiAjL4z3/+85///Oc////f//x/i03CAMu7DPPTanJnJUxW18xwZ9HPEXsl38/MkMNYQlbIcKVZI2ahbWbIzE+LiQwIa97rmAx3VoIM1wBih53YWaQgwOg4PikOKwgCaLm9y29le6wRroFrTRmEASsZrIVuzNMvHrXMgDDSIHtgmaE/xGCAOC9BhiuZ8XU8IGjQIY6n59NwoQzJmGVWQCMMw6RZYjHOndHGXzW3AzjnlIJTrAlOSwtPwzl+iKcZqjjLFXAF18Tdyo3D29MTce6yGLuwAx0rOLwqgmB3Q7GbnnvuNsdx+zXzZU4JT4NYS8CiMCwy2znme92+vNgsbG2YrrgCs0ZnxsrNpyeWXpbSrSBFRBC7A9LBUJgeYi+7nYfLH79UxuEIX5YNEAIEA0jTBcyQpZawUcQ3OY7OeZ60E0nShNCQNDsZJEkBFDR7430TDHcyM2n06ASjPDn377nNjL9GQogAlCMzM2ABpigJNCgk6zS59XIWgYfm+JbjuA2z59fzfBGbHcUENAGbZAjGc3e/ogHH3uaVepAPNCqiIhhtAF1FB0HPOceFEWrtI6Q1p0wAzqqkSYCEAMa9MESTSHCyCyQg7M7NO/3iJnSenYse8nYTMBETaXs+dQ7eGDsMCkOCrCZQEFCCC1BYIIisGpMG7SU+OHoE7MocxRSfxdsa02Szzco0Cey5G0GO83Q71vPrebaDx/DW0DDe6igntco37uyEi+yQJct9GqDSaVHUBAJhUzFHzulkLPGBEb2jXJVznyZaSPj+guiBJufzdpItcxzHb7OdX//qhdvtGF5fdo6QMGHOu4dTvD0BdsKYkpUkzYAEBZRNIiI2A2iKWOa2z5Eu9OOHRW8oViXsCjxvms+w75CI2sS8bK7R6sx4tqcH94Eg7YRNGLjaLNYEZg8So9mJZkcwIIzHggpKGaZJmkoCpKS21dM0Z+SHhE7uvo4x01qF56ssQaRBEPYow0Abijf+7svA7Es7J2cvz7c/ebh7HnMTK9ipWaGhBJoVML5dZEGiMh4qOjgj7VkBgZUGEWubwwA+T4RHzsuOOT4iTmHVds1ZvQUAGIDtcIDAk2R9RLKamEav4RfN9mR9Pl+4HTPBQuttGNYlgwRwvWsKoXG/iWNNCkAeKKRpRGU0GshJSgvLtoGDmjPH9eoOfTRErBi1V1UnABsAKDFZeEpz3/TKw2YFd1ZChAZw50vPne0NoJbjMCLABFbXhITkcVoTYI9czaxEBBEooNgHHkUCRjGDTpIUAcitDWfVkTlnfSisB+95eZztGACwB2FrCbPKSRsQhHxkZubiTrNpkxCPn9rO4X4798uXg9nnF0JligSS8JE1kbxvvGcQRIAA2oYFjW1fF0mAdqCtUOweVXvqA+EQzuvcR2sEkLmUDFABwGmbBhPI6yYQBAjB7BAJSN22mGBnT4/beJzPZ+4owkoCGYKlQbO+z3cvQKNAQM5rtkUOmG0W+so2Lo5iw4fhcuA15z5PADBNSaQSrkIYAAza5JvdCRLA3FnZSQyJN6qdyP05yDu7GiSvJrNAYt8nmMKzQhEsoOChYEio6mx5PCyntfbto2Cx931fVwDTgLpEomofokgWYSbvaAB5ZxGYgPH244nnr+eRIxC+0z9a3ioDXXvlmOyKRYUs9HYX5DyP6B8BvdeeY+AAALMaIRG0VYl3mxMZkGl8ox6+vAjyamLfksw+SgywR/bd5LEJAoZEz6okJBHsM9W8TzuXk8ftF6e4fp25fwawVevRiHROi8S/pVnmm0yIj71HL6YqmE/Rl2CMugxGrJ9iy7z5WleOq+4A1BXLGmo1Mwf/bZjFBd/CbPIvHOq5jdqwLtGgAkQtulyqxW0Xbbnknn0FyrOzibadxFMTAP0e7FEyawBpd8ksr6fd2TvYG+wfQz8xWaRJqqbLICkWQ1m57+3TscZNd1q2yz7nJ8DXPBw7NPe92HEzNlq17TPUYmmuCcbpsD9mu+Gi0fvePgGYmce7VpjXKfF2YKO8nTPc1jYKCLdeX0fvNxvjeOWWtQA52YId+7QAwAQN+t3ZG+yRvc3+FWjQJgCaFCpRCV3PqYbkuI7jl8i80eIuve+PJwBzti9rVV6v6zO3JaPXlnm5z9MRE1Ve7+LhjOU26/YY805AVmt3y8hMmLcCi8+ZERo5Jk6nOhsEG8+P+NzqFlOTt8dToOY4dJHzSoGGCdWPH2gAJmEAa7ovp/x6bU0G6+q74z54e3FJe4wAPFosnLiOjpuVCxi+35ZTy4lI976fZ19uLXXObeATgOoh56jCU1N1Q9AATFBRmHv/tO5nBx2q67WfWDcWVpwfsgU8tCBQ5+qACRo3quk4ruevPjRb0O5Fo3RbiczdAQ+1RlVeGnHbihUa97g7ehQ6NyCvOt1Wvcp1AkxQsTmJ5+nbg4YJGqy9Tp/wONAwSe6jrzeVVDUfBdBmd10JwKRxw9oG2sGPW6xKkO1yjeg3VCxD04vlCsCutAyweMsAgoVtj7s+0jrW171Hr9upAxfXAR4K4QoHAauibhUaBlFgTp6OtZVjPT9gFaibKeJxzoUYxMKxl3ALEwaJQsecEsrVNGa0W4kwswKgAaKI5+mb5lm6hJmxKKu75Xks/VY6zl0EhHZngJi4tBK4z+OtUDixw7jKwyuNC3G/XNwQgnOUMM7hKC7zsc96wHk77Dnv5PrKfXX7Mi/PwNnOUxdpfjtfzhcPzvP2++3l6/ngCveAZ778fnv5K9jtNnSNDrYXtefbjGdepsfRHMQOu3J7+nqNFjtW98mX5z1G5lIB5wszCO2IXSIXd24inCcHdLHazcOGVT3OvUJNIcy4wXK5XRqMXDS8Qkecp8DMsN0FXqNAskGKZFEusbXQzCysgFxlIZCdeUATeIEmAqga5HIBMcV9rtolWu6X83TmAOgy9QDTJFsRL5AUgZ0kDBfdYJWQ62thQ+MRZxR4sdwpBGMHuzyy1AAHzrmB0MVqTrnPJvLyJEliGnHR7YERyOW1ZlHAnQC8YAkBkQ3XN+YcGLDZCeiCEfjAFa+P7NQxGHjKJffuYSBdn3RXIKuDCx7AdJdgzfWxZAESu2JCJIJrcXR90DPviJhrxl3QlC7XN5szwDXsgnVn3McUc33Mc1ZoCrxgrydGMHt9gFkDlhECL5qRJM0FkhBICISuWQJl0gUKjIch132W168QIdCEhJetuTN2L1BggqcmdNkIMBqu8IJCB2tc/cXpErEMILhc9ZgHgXKJFxRM6KrJPiDmGqXE1ZfHRcclkrzLRa9ab+jwEgGZkFz/Ba9RAgbchVeuiYtsSAAB0qXDqxTQ3P0adK+RJx287tWLuUY7q2/o2hnhJTJY5pWLf87YeYlwzt3bGwIvWq3HcI0MF98gdNXOg/HcS9QUvdwGuhuu+55zTFxioeTeu71yeBxc45BiuP6Fw0W2JBMIvGYhwMpVzmAgwOyaSWCu50US1hoIZr1mD3eQvUi4QwYT2TXzLsftKuEiSQNctO52hrhOniCQXPd8ccTrdJyz3LvgVeN8OY4bXSdcUmjiuj8zM+6Vkl4OoHkQeKUCAVfqSsX28lvSA6ErJYSb4HmhMKqDK98kvnCpTc4jejAXy7vlYORaZ5j4YC9WDwa5VmIQQMg1L53zUkWgd8NerEDgFHEv1biy3IcXSwg2BrnW3vZcFOQ+8EpxN410qeDghZQeCF2mHsCOPF+t28k5yWUvU6rEjZ1rPgjmchnpHsatPVFCNrCXC2lpxQ0eNJhxwY1C6AZL5OXgohdFz9srIyewK4aC4wYTYEHyetmzt8i6vXA42xGEwGtkgEBtEYcYt9gUpwwEQteIgIGs7C3SN9hxnOc2CA8uMvGsiTBu8hvPLx0H912mAghgOjhuM6ZTfHCdBRgo0YEb3Qy7Usaznkswb7VYxStFGLAfDy3oW02m9lI9661L4bzZjJO5XLAd8rzVcJb1ikkcdbMNvJw3LxSfJEgJN/toz/v8dLtOflJgaN5uzewu43UCzDKJqNsNiBQIvDwBwRwhEb7dZE3uhS6PYCAJkIkbfhYCudCuQgtcbzl+O6sVvEK+wrUP3PbCukNXqDvuU+uKG3/KF4frPBXkuPWEk/MpL0/ggyZi3npYy8uX6yMEHqICvvmQSCC8OMBM9hWXm8/CJkDWC7MgzN3rIfLm41bryr1dGCGoZOs7bv65nZ0vM4Jc2BiA0x0yPgIPI20I8A1joZ5ce/X6GBCy+OSWpQEgR2PoOD4EgAKEW9jDTfL8IEDRDvPmQZlNF3wM0ixD9A3DZyYc646PgoaZyeDNYjzrRETkR4HAGkTgZiUMmNcAW+CjsC17VlEAwmvydJOWVtcPA6iPUQoA0hUpEPAsLT3mxwHkAZG4VQkD5aneNnwgElFlAl4QAwKALEVLfCSaRVgwF5RAPZMV6/xQIOUsgV2QZ41d0VH4YIgagwsg8ILwOvTpEOcPBpljTh1A6IpsA4e7nB8LYJQLxBXlk6GQOPHRYMC3iPH8HgoWPhoDtgFeDgIGaoohjQ8H9EqU64aXA8AcbKucHw8IJBIHXYsCCNTuZWnX+oAgkQZ6LQQYmHDrI/ERUQByn4TAS2A8f2U0ReFDgnYSBaFLQMBApUn1gY9JAZUyXE1viKXN/WNCq3NODsCrwGfGqPWuX+tFImDCQLnsUr/ZgOPcCw7oKviZ3GY/7XixAiALLLMyq6J0uxGsFbmY7dORbjMI8Ek0TDABpg1FqxnXvelWg0Y5zMXw3V++9BEtQYEivBs2QBMgw4l9OEq3Gl3EcSlM97sTq1AmSIA0Mk2AM+AQG645jsO81bqe/345joHwGrBUuacB2lUuMllgGHAjELawnGfULN1mCr387/K7IF0DUDWqqgSmnS57moSIZxN9xTzN3C93uM1jyZfzZUaupJGVBcssw0ARIGD5CTCuB/U+ir7RgM0JQwBvgmTOYaKMdzUBzocvCC51u6WrAAK+CX5IE1bdL2qbbzfTrgrciK7fyzSeVhdk3PAN2zbvSBjgjx6GfReClgvU9E0X8pxVB4CAf/h+QJp4WiZxwwusaZFPfg/D18KfEBMFAlkO5u0W4XQBhH8XJF6V+AmlQQBOmMTtzj4raQRuY9N44lpuOqDBs54zwH83oVfmZ8IEDYA2nqYD1G1XE65cBBDwv1kgj5efSQIGAOP5lHnwTScz01DgZs4CKNZN5yV4vSIawN+JQvyJMKECzGdoeKorfNtx5b7vbA3w7wUgP5EECgBNGjCAsVDafNMBh5pOVMPvo7IW/jw8bxKmAWAXtV5x83ekdy9PDPA9Bb4S+EhW6qcgoWnAoEmABsZmHhpu/1aVqOoCCPgdCfFYiPtUlp9Hw3hqAoCBvCrZ8wOAvc3rdItn3rXQI4b7IB2E8F8tDcMEXSDIYhH7robDun8EHD0ftzgIKIDvKBBCWO6linuJf/MmHsooUpTBIuBz/PR5udZHgHqOSQRAwO/o1ZCfV7NoklaaADaof3osfAg2s8be+nN8VwLxum/x3ykxwMi7gkDBmAAyrwsjPPAxyADG2JYFAOF39Y3xxvj3ryEXmrJQBFAPpVNvj/goDHKMxCK8f4F89JMZSAo0YACoM9V6u8eHoRbnpcgOEAb4fkLuA38GjCQxsqmTAyCIutz3u94PD/g4bIv3MdgJGAT8fggDIX4WwxiXxIBGSQByn8djX6c/EMBg1dy5gvg3TMyfB2OS1SxZAJC5x7pGv8fH4uqo83Uud35igN8IfLdgAKvh59HVFSYy8TTHJfunpfVHfDR21L4xGp8Q8HNCvLew3Ev9RCA7y+jJ49o804cTLvXhcFhGjjHrBAIGvyWEDwLvAiGG+1D+fQPfyzDSKCE5r4ETQ/mID8hluV4ywSMAwnymQEpACEAIZLmX9t8IofcxIR7ujspdRF8PjEd8SHbUmNNtxbMGIA+N72r8pH41sGhRn9plx8ck77ofHweWDgKgwQwYgEB8IARDD4Z/ZSFiB4FeCUvI2j0EXoiG/oAPS62n7bd7dxyaAVioAAMQIu4DYZH75V86YLe5He3yqme5QDQMImJtBz7iQ3Mb/ae2zSKeGix+44e0dqdTv3QubAGzgqe3vEPz1YkPDhzW7YylGZQBE8+bqie1xyKoyj8A0dfTrwfH18YSmgDrtziAp6qx4+NTzAd/XisLBghYRbx0XuPYJG/4EWz36+35aV6GlUGOBuy4eVObk4kP0Rp1d6rzZACmhaIJ0M/UQ8Ta2Tl2APS/nBy347ABmx1oEkx3+aXqWOr+Mbp60DRePPfR3XprXdxnGq9M7A3pTm8J/HA4nn67zcHizk5INOXJL1fp8do+tcpI45WXHa0p1BeaOeZrvrfQRyPOb91MMpFsKpZfsDmWT8v1PIabbcAw6MQAsTanSbE5qnxCr9nbDIN210MZPt5AJnBFCGJZftG2pV/uL5lwwenKqoTNFsu6PIw5N9/1xoiY/3nmO/v1P38fv/9xzH5AwqwAwy9h1qVagFKi0llVBWtZYr0Ob3nWYW0R0eb8369fzu+xf20cvyl+QEkav46Nw6eo3C0WDRgWEZETAPbpxoAQufJUGUTQoyL2/Pv48t9/3pqNjzUEF+WXcl815rhKEEmRFMW84vkcLoE1x+3gkAliPWGBqu1F6Pb7H083j/pYJMj4xQSUIZIiJYqkRhrfntNgmduXA0Z3CmIhl2grb3Nz9txTPuLA/cWE5bCGAwIF2cYrDVfWMbdYkAQckgiGgfnjT//+n7/+83f7wfiK9KsJUMckCRIw3nTucXTuzjnuMMPoZuqNm/w+L/Ty9evpB9Nd2cGv6SKI73iqZyw2KYMYNGMb//krZtM+mMezc7r+inq3gbTBgRhvPRX8iGIS+RRcNd48ywdtQHwOJt+apR9OknxmBnw8Bix+buBHc5/2eeHKR5yQnxfJx/150dCH5X5auCJ9SDWfFpjlR9TQp0US8vGug+enhavQh5MN7KcFtuKHs+ARn5cx8eHmjn5iNMTH69YMn5euSB8NK/qJgbn4SuCH0BH0iRE28arQh+BifGJKNL3yYSbpJwYxJXQ3H0AgbvKpKefcSbgfgBBJ+okRTROQxscAAvWJ4ZIISX4E3YXIJ2aSBgb5AbxunxmGJQnSB/IJapisfJQN2GeGcW82+2EsB31qRCLZrB/GOWN8bhqAZh9E5zjW58YqQMYHuTuKfGo2rBApEPhPI8z61KAGwLgT+qdlTfKZ6bDnAA0Fwz85ENihqc8MhPN8SoKBE/znCAEutHxmCsvOBBQc0D/nceGcfHruvBxSoss/2Ucy8em5nocQIf6juoum2+eHO0Ei2T/q4YkcfHZGgkwTBYQ/WuAbnkX97HhoNA3cST+a0Cvnyw31/ORwTgvBlpg7wh8o5hXBM4/pswNLA+jcsRGQfpyGBe+Ctjn8+unBVAJGpRM/tvHmam7Gp6dsdaMZzxYFf5wYgAQEvsbt9sLn51Qx4MGeDUA/jizEBAbtC8fvfIJabNwa9PRUfngJiPjrODyeP0Oy4OU2o8y5zxwC3fmdQiEEEPrfvf3Xn/vXZwixdJy3blLn4gDefW8pkO4C/3o+fv/t68tniMjznk+z59Pc2l3lR04AAf7nuB23lk9RO0bGibtRC2YGCyCfpL1H2h0BE99OhvZ9Ff4k5bz4dIe90GNeqgUA2nx3A0QBhAGEB7DvB/xpeq2467sLS17ncmDZBU9YYt9kCYAAAYMA0CIRuePP07lx4ZQC6b5oZKKoje9sgwBoADmtgcMRf6LWVQvRe+5A4xwIklj6ToQBGgBCZY3H1v9MAalRnWkGx17LQgABzL5bgni+Ek3RdZn4c5V5zjWgQLl6g4GcFHqvBpt+orlNlA8n4s/W677eqYhpI8om2MAs7+1KPM8Wk76OwJ+uiUPbdhfZlEUIRN41McMMVM7LjuPdurZt4E/Y0H52F9ldMPnczre9XZj2PKO3thB/ytaGwwGFkSKQhCTfdw5GP/W5zzwbf9J6Wet8HWN6OS6yzd7D7p5zp4HWPv10p1H48zawbRS4EmDiu75si6sMuHcQf+ZmtUM38rKNVN9WMgySzMA9z5msLy0wf/26G3/uxjE4xvlyybSBak/urZai9OiGLMfjYcGfw5VIg244olh3g860ddk5ODzQqIw/iw6LlgXODaYwuUOSwIYBz8t1T/xZrL42zNx3J0aOxl0HBhHE4GXxJzNpWDuiOljKgAotUfz53Nelsx5pCgjusHxmkxSU6drMTvF5Hq7y//7nP////2MLLsD6N5A8DUB/mkQvGoWCbaiIhGEX2PWdGsWCXTAMGCj4KVp7CxGsKqOZX38rWskqFQswDSTLVCLN7xKNMhOVQFlF26gyYM/2OtIEZ9lu/tILRdsM2zQMmCBZrUIFeZ6vEeSbSAxOm8UCbNAyDQNFaF4uEQJfBMko7sTe+JXPI7uGZ6JokniWaNFNlebmkXPFW66NS25z1lSRMi2BFgjQGtNzTqx4+WKo9mtlv/3SW6FC5siiVQIAE0oKAFUsVTlne11fINW2eRZASiVIIPgUDl7BqbmtL2EKMGTKr3tyFXKfM4ecAcIkIKdsQsXgCgzsD+feX8QlWJU5nUhCkEAHCD4vKBbMNvZ5vy7fcpahdQSZX3gnQvv5/MgU2owwYKokmw4HrNbnMsY+uvmSdlzHPi6XUllkUBQEkkBQFALquMt5mT0vxxeYSTQI/GXXoFF73uWFCgUEEirSFWUDhKIalonybn6DDRHb3LeGS0liQCBpGYQgIjIokn13zdyX51AACAJN/lyEEHtumIS9IdgWeLoZorZtP143aV1aqWjDRIE2a6IF0b2gTW97lp47cbvk3HE4X3tXC0jJolE0UDCBVh1NoZP2x7pu63MgbFhl8lNJOdDfz5IA8WpS5xnnfLkN2MocD3fXS1BxEApZQqEMG0ljhqS2L2zehzuebVZ+vaTaeWtrWyLCykIZVTCyUPIUGxhSLJfRt8vxuSIAQgw/mY7iy9fznB0hXreMbWMv+y0gOquO2qwlljK+TZsEU4nJKK5zdRt2PmHjJf1wPdZvaq13RiW+bdh2IducGmqSoNDYa7YnJgAWWT8bMNxfXyfBptdAnOGlr3+fL+f68QvWNtknqM9r4sXE8/MrLjgQPY+wMZ7Emg/n3Fb/wrtji1YXvOlvwGXWKZStfdJl84anBIASan42vOmRYgGkiZeTblbqIRGj9KMHepYwid4H3rbN3ypSIUC8JGcADbP2RzLqssfCFN70dOqZ17FnwTouTW7XwjdVUPxsHhVqs0pNAP2iUnYvaNt4zMTvLMFCEfwDsZ1ALoj9rRCf7i+TndmSUBWg9ghffg4fV2zzcS+89bJSMR4fE0z2w6rcvmXC/Hye54mUUy3IMv0CU/DCpk/Xr1sv/Z6QCNeexmx/JFkY+0FMvDWBr+ftBDz8NAWn2/EXpNbSrsMBwvfsd3c5fnkchN1PdzWnv/FjGlteQMBS0aYBmE80QXSEahZ2/K4KoGcJxB8li4Cxr2zG91yusGJYrQq8u2D6enrU9cJufOd2mHPOUZCWFvb8oQGGTZCJy0qgBECAaSO9urHHgfs2Qr8fyiAHy6T5B4FiqWMhJr7vOvfZdd+CZRg5958etNTj6PjurR1jv78UCEWLBMwfGJElE1j3SRIADLDSmVlHLcLKfR8LfkdbBXJ3mwr8QdoFlUHr+wSwVx0u6gZLzrHi8bOwNX4/nNa8PG5udQiFhi3/wIAFiqOBsPFtEinNstwDNup3xLCrSzPwx1mQw6QK4HcQ5shY2KHmNkroj4+Gh/Eee3Nl7u0SrcV6RumHhjCBjtcScL8+DK8NTboA/v3A0CCPkIt/FAZKVMtRIL6jNa/Vsh0b5P3q2jyDDLzTg8P7GBNx6E7TPzQA8cbEOh4YbpRt/I6Wpm03yPijZFaTZt+0K78HkXsuUusu1JxTJbJ+ei9YC/uexy3WZu4Gf3AMmG8AQMqqamaz/fvBBEsG+MfhpOHY+n4ceW3t7ao11MS4r89SBXVdicundxPNmHMPmaQA/9gYAPG2FGaxRAV+R8aCaiBQ+sPgXgvCu9ZYf72e8PaqZZnYBlDNglsR3g7vpnXsw44iZYP4UVd6BmGG8TsaEygTNP44DbsW5BKCxmxvBsGcAJAkHLCAjHeDRnuiACDI+mEDKRYJmc8JhGEYMItFE3oNSRgGDMC0YRB6hnY/GglIyXr8ggHoGRFmAQYM2AAFymUYAgTbMCWYNgouUHwimjZgwIBNUy+jamj5+cHW3c5tY6MJvgFAPMtiVtt7BvGeKSjtBIOFH3cBQEEQnu8hZqLKxpgTI9jw2k7J6TLswpxVSC54Gm7H9dJnZOsGfcTcqs0GgIubdk6UjZnF0RqwaA7MqYwmjfTM3hcrnemRY64rALAzXE7b5Zr0iIZXJEfAp6i4++m6TZciAt+3ImGG3pfIYk6VJNv8UWtZRtFhP3N3nixGkoTDAgvjcnzZOjAAkCahbCXLVZcDwRKIdBthEgAqC2hJ8PjItBwpwwGV0udTK7PKCToolwiag+kiCYAmcLqkAUQRhFsRyPNBLwliRtb6r7/ucFO4IM8pkG9mViuL1DsDp12kIMM/aKS4E25iAkvrvzIf0LwwIEloUZes33pbntPSrznGNQJNZKC5qQ/lNi7nU3WYKE5VgEoVhy2oH/QLx5Zd7NUkNlHza14PkukpI6JdbPbWa15LQrVcapH62v7l3KqRCxlskts4+/7cmr4hPNQ+1/bXhw73Q8E2XAnvIPWEfEWJBShbvStQRjIt0ab5Y+ZeOZKgWOCqK72PDCooUgz0gczaF/OZ6B6c22/VwiE6wGi2lvMInakQJ5MGpYxCjRQZjQM5H0ts7ia7WH1sG6MV6NlMdxEOihjXsXSKrYGKRXuNepzRALXGoKA5rq1KeOHy4H30xxWWVqPQPMswWCwSLLyYZZI1rYZ3TQpZTFNRLPnH7PRYqEBYTHz6Wp7VvlIqmGSBynZ0Tm6X2Z70OWvkmd0EbJZpc4ECda29OefCkOQxSUrVjb7OOe2tBWSWaJsNXNp+GXKhU+ZooKTccg7BpEjHom3Y89olgK5i0Q0tthoj9+Vb7Fl779OkrYrZZsspm0wats7R9C1YJVQrwO8KBIAkQKto/sgUAb6J7s4bXNFA7Pz5/nrN8X8+fWogaXjSqFjuvnzRdT/nviD6dc+x/+PzGqH0pJlWqR/aT6fL120+xZeulQ/7WGZvfblbtp/z6zXn//5yWkxATO1RXcf/PD3keWm1lOR5BTsirr/+n3VdJEVXNPb8ej/1t/XLIdn24jCTbWmf/nv/dUNeFz3Xc/clLi0irF0gGg4oFI3Bor3mfqWxCACLNASj9P4MyzYC8A+KAbNMvOmXh03zMWajjvun66x8LLbes6XgrAKWuazS7NeaAbRK10z1NVtHxkSlk47OFnmdnJEzFnVyXJFBKTqAPS+PJg8ixDAnZwitH8YYbTasNmqQKwz/r/Phr81kU6zufR9XGksLLEuxMKd5clua+TVhfDvwODE01ZEwiQDhYtExaRWLTiIBwCqIdiTrfYEwS0mQBeIHNVCLpvr15571ApOI09+I7SKs0ZaH8Mh8XI7dBFU2omb1HWti/cz4jVuGNY0WEcV9AwxV4DJw2LUwOrOK3a4qqpNlJ2vvpXHfDwuLs2ADbR9FZ2PcXXdVKwGAm7Hndf28Lh0Fj+Xa5nXLX3RaK6Ng2IhN2Cca18Myz5PfApbTXpwGKQIyxZJBqJvJQpKF+dgjUCQsJcz3RhYLBTrgHxVcRAPxU6naC4JQ3XvyF6/q68+XPN6nZ64/LfhkJp4K+Rh5Qfv8l2XDznugMPDYOpd7PC8D/8BgtKX1zL0ObTorrQNoM5uXK5Oj/+Xgu8+XHc8u9Xh9iIOPp9N1h5kEwNC8/CtObVnvzkS6Prdt37/G+vnQsg0AIIDzftm8tv7X4/EhbX6rA9fUlbsIMSWESnRILNroAGqMXVuTIMBCvTMBoMu0ZZo/KIEAGWYJ3zRNsGoWRXZwXu4umPUvtzXWdce3A18Tcx7XXubQpRMZESVev/H0p1/3Kw4NS8PGxkHPllQgJnS5SxqF1jvWHd8WfivXqS8kqBIAuNlzX/px3VgAiM+e12uj1uPdv/DCwzgnfLcsfc5sO1582MspUTkxk5FRNKIEwhRK2j01etGkg4D9riwAhg1AUP2gYHLZApH6BpmqyYRCcVQ7/oY+R+2H1VhhvPh4+CVd1/r0BVenjWMq6uGMl3/+lTXbclpmFNGvCMiCi2Aac477g5EPxosPx8fr1IHsSTwlMDKOfVmuSOKpK8c4LdDxAS/u18i5V+dy0O4ZfAGaadvZ7bAnSRNT6KBoRalVbPvlkMGwAeN9qwgAtiGr+KMSAIrVTOJbSTsTVtPS737+F6I8Bw+t3X3a8XLhy8NlX9rxDrUzsbpx2cc86EU4fc06L59XzgagW8gACADLkfPycFh0+MsjXh7Ar+fLYUXrAEwAdmVblgSIp0HkZaxHjQe88oDH81f9pXNxXQMvFp6tvdNOcwNQRPTmcINB/TTPF0JSEczy+zJJsGzArYgfVjENAiC+bRksISDA+yOgwXpQRM2B1y8zZy0CmcnqDND5FS9ffjPsMFkAEJZBgy4pC8WVlVe8fr3CJTAmCNBOcG1IfDMmgUBj92uA0+PgqLa2ZL3sm0KCIM2ilTQyZpiSUAFOJBCAAfpdkbYhGVARP6qCcyjZOv0tgKhAi5ZtHH4F4KQWwJn1BmzeosB+wcyGkLTW4X8eAZowLY6LCt4LjU+SEEyXhKJ9obtavQGO81qyi8bzbozCtzWQV1ht9ErQL/Dsd5dxGWvvvNJvAYhusA3YMb1jqoLRY2t5SJwniIrUZL0nQk+QYYCEf1BA7CizOeAXwEo1ncjrBU8TzRSFt1RUzdXhqOGQuFS22XcQNGgW2pYOV0EAYOGpQQAoFdR6m3jDZW5IiQCf0CmtMb7BlrOqMQ6zEoDxQhJzzuvsd5w23pYgQDxrXDg5Nbj2aH/7ycdx3hpU0iyP9+QAyyilCNr8cXEDrSSJF5oIR2418SynSJlDb0GmuMuUo+ZQWL13TCL1jB+jWu6YiddahuEG2vBboG0lF/GsSYqFb9MoqwHmLBnmCwCo7MyDRDxLw3zRa9ddaNdCufT5/3wqjUi4DYXr+p4Ewol0kCjIPyy0bI4ktq4XCAASLzSLAYt4k7mmtZtCG2P72rAeF+WhhlIGTF6vk0DpNRbwRMvEpPwWCJRgmgBYaHbyW3Apg+2ONT0biBfSKHmWiggKR2rPMR/RFXwbLIDxt9jktvZN1UZU73sgsO/1fii65KzotFH8cbFKcGLZ8UI/eWnssFkhvwlagnQQQr9W7gvWqHDKrEgZJdjm4768gngGVAA23rRNO2wBgJUUWN+yWUCTUSzj5SZUSKXDIJob25WZtgvf869/w0SvTw8rsu/CWIsFbvP9CLS1U6RtEz+uNAEC4EteXTQNpd8IomkgjHam9q1NBNUJMsO0Ilja8/xw0oueTwUAWG9Dwib8BFYRhRegSGzKGWp8BQwIrdjWg5edaUKgaXznT/cEtB+3iApXox3V9u39BAyzbITxgyvfvyiINsi3IYlEgMBp28d+9t57iy5btsDe+BnzfrScwRewCMBmcBQA8w1A2mV8k4RfgIlAbo85+hr0K2iICJ3k5RcYBMiNBfn7xM7KNUabbIINCjzv6/JelgzYPDsj6NIPDa6u38UlOoql0puoWAkIBazz7BRNAirZKiJIRibKRbzQYcJlEoCLeEuhCoVvy0R9yygIcJUX6zWGKgqZ4ANiEyuAKHnq+2DdjEoXyEgYJPW4xemddDMLR9jCThM/tg0r35VlyjIr8ZYqoiyQRSYnlHZWaYQBwyrH0nTY92u2l8ACbKhVGiy9xeGBNl9gGnyBUYr1YDptvIYKRcS2B5DFhKodMmfhO5eLqkowjLmaos67dXgf0bc9J87B4CbB/KEh5DsNVTddvL4JTaOMKC8jiOqCUWObO56OXRW9NRzyvvSipyW4aU4Sb8DDb+uUYfC516blvnQ7ObC8ggBaYL9OHsxpEdp1xKz6ThCtiapq6UqCjMcdc+nvo2lsn31/aK3ZBeJHP6O60bzN4KsiicIMINoWcOExAyDmCD8xE52Bhozyq5gVU9FyYvRXLQNzB0C8LSOzqq1KXOn5CgB9spwWGOUSj9dxtAvfWTJtJUjN6QMgXUbtXvo7iF45gfseLQZM40dfO9gsxHZZ8Gr3KqSBIGNizH0NPI2WMmHVbzHWVIhdVc+wQNBPYpyw9vW6BV4dyt0Bgn4jz93RZFxBvJodm+seTW0s5zZbNk3UjNJ3AaMSyAjWg6sKRvnykO3u+y2nLffH437JdsQZKP7wIRHVit4Zr6MSRhlEL06NwfYMQRAgiH9OWmIQNgAWhYqiYRaBtowx+brmml5JGG/MnG7LaGP5x2e+ailXwkYvgpNeTpswWcJ3pbRhIq3YXRNmST7/cyyn+F7tbs4xW/vV0HIBLPNHj646qqs4H1539+grHg+xKYdbKJa8L+HlPOS1gWLjNKyUo5qVARVqj0UNMf/5CXqBePf3gaNSQbx1ZGZ54bLpK16rfplzjGVNFp5Q1dLLXvdFfod1FjLmMIOf/+ZrWxZSj4+7xtL1Xfg55z7G8ZxcwzsAE8/anzYUUVgDhbz/xJf9/MtyfcCnE2qrke2gI2v7OtvLatE5TfdmAjQRbBObAdSyX/HlGJ/iOu77CJMU0KL9ermuD0s16TuMKi/dcyyPp5f14z+Qv/6f03+3rU9DI3vHJq/LXr+e8PaNSm/9kpNh/PXs+59DifR+eXSc4u10WLYa5+30K9e7aMN4lgWa+/PB4o9Bu8wejk3bV7z4p38ss/4HlqOWx0goGg+HS068nD/N6wUKdw0ABkDSSoC+XwYOxOJ+nmAFwGxMR849ToQC9BuBlbPiMO2sfXmJTr9x7n+bh+PncQbAtEief8po99i/wzHTtYBlBtAez8xCypr3/0TnHd9sXeDczst1ttaXfcfzJgDzU2r5/XDcxpWfox8PY69/3LUCQbjd/R9d5+NPwnK4YOzMHi1C1/vzXQEEaGb89I9JR6fgAsoZCHKp+dtfOb48Rl6vy6cDm5006JjAto37NbRsSBrfpF/RVj58PeB4x5qPD6ewCbLi9HeO+vr5NHZf8IQcM7/M0ckV45cDpNex+ufr3Mc41P3aUQDaon1ZWjd9uU54W1ZYryGCDfvcR67YFoXGhm/Jkg7+PsLv4if846BlIJrvRNTXHWtbj23n3q7XGZCb6uu6nf/n3XqMVvfgyAifuidzu9+lEiEeT//o9ets0dqnCcDZEGjAneHr17HK53n89Bntp7ntAYjG2O//92lZ7v5zEDZNUIBR8EvWlr/+erqLZf3yWHG9NkNE9689/3U9/Hzklw3PnF078V//uhuxcozHwGyv6l+Ok3m9/Ad+PSmOT/qa22/LX+6KlRiXa5ajLXxFXyDul3l9PMXWMuLTPb5pQmx4+q8T6N0EKJvI+MOACRDku+txlPdYw41pGCWlEkmyHaC/PAB8ZM6lQp2aZdOAVSjkCIoxa+Cpk5IAIrsBcsv6S0WLRCRhFNKIEKfLZYCGE4AEvkRrelZplfpIFuwwMVF7NHbOeXkG0hyj7//1P/5jNvFR9mW2l3GlMZxff8ZvEUvzFYByw5w/n0iQ43rJLPa5xku40lGeY+ALR9cUd3ybJkndniTeP1iVIAJ/mMmyT0fy8t3QlvlLNvTToR2c2IkqlP1wOmDph98AoHO/Xnr204ELXIOAJ5h6iE9Ht3n6SgDkHI8das0VewQ0MbfLHr0tayHtyuLpxOoPd9eWNg3XGEVqCbyY/bDcox2W5fhpTlcaGAbu+5cTA8df8fxhXJFe5l//9slqq6fbPgkBBAGGdroyLy2/IvpJD3ga9bhw0bo2tzln1aSdkikLRDCNgsfQHeDmBj8gD08ImwzGl99FwHcJM3I6lH8YrnTemEm+/4L9ev56h/XYB3IIyFHO2U+9//W/f7k8adgv2PtyuJvAzFAVnddzVltOUvzLeILc63qSgpmBiqavxfvtqN67Ztl2xnpA/ykfB2uCgD1HVbToL8PS4/7xt9PaDzFc084a05nx5dS++Fd8u18uScJ3GWTUsUYNK4MWJCA5Zj7UcX7t5HJ3j+c1RqaPfzlUQyHTY6bLIhoEgTln1gN7WLV0HfK3x3HaVoAAxfmf1/jzj2PvehejwBzVsfxhYEfNZTj6Aegq4LqQFSHQtqEIE/3Lb3hWnn3O6m0sJEQDJkgFVO3LL3iWuAq5W2AgwNyLj2cxZZgImoxix3lbGpm0BVa5BIdewS4w9yPI7qCtoqClHOvlHi/txbmzAqQok5w0DYGVKiOrjtzm0nrTefsG+hYjT6euRgI1PVyTBEkCtEe5LXX2yiUiqNZWzssRRdhq//g55+kpiPd2gd4Q0h9G5fR+zuj5A4DYYrteK3WMCLLUqIMwavkV32TB+2XL6pQaimA1cTlg1PGf+HYXtocCCfaTRi7jepxZswrobhKpmBtw7VFI0zBqlBltvgJx2FH7Yxm9QWGgoR/YHg+PEy+O037ZH1lLa7YC0lIFFwzDhUpwI448rB1nfwtrbmDhGD0E2HayWCikqmCb8/HqCKs3GMt/7Pu2//IFg9Pzp4c6rDwO+hYzSBBg/WF4zBrs2NcfAVhx3YfhvZGESmxrA84DLxTyWsM8tyChVJFocYcaF7wwJva9eFVjbxUTse9qVclkoropzAHgIFeZFlRlwBqvAhZcL5XEFlGkw42HJf2IVxI4j0nMDgoQBRQMs1zJBM1AxLKcLrvx0sA+L1jX3joBoGjbVZNpJwSTihChlvaCncX+25cCnA8ETwAh0m+I+4wWdI4/DAxXHv2HH7eR5eJUkRDJMarwytgFTBqmCqBS2mYZLw8gCgnjfF0PES569CiCBcIu4+l6ySxUAxB9EebjY70OaLSmNQSQlnLbjbdcWDsrFSBNGjLJAtGqmYAQTfOfeLX3PZfGLoqsSMCocgFpyAQk2uPKFgTULhmHAdqRoMEAhfoG05QpzcCPawCAc44GiDDedAEKuScHOiwQxusJANNZwPk0P3GwEj1gFAov/PwPT2SKAbTTpwVvLcConPtiBlB46wZcRu4XBxE2KdOQheoAEGpc94m3fUQUFc1hFgEDMABYDsZybMMThy+NiOiF4iAyVuKpNCn6DVCSDc2qH5hnCZQBFL6rYOSkiO9+x04xnNjx6mVnGiZpvEMCLhHEdz2MURk2DYAVJUtWwDLVhZF4623aaiEQRJEATctAY4tKI0eNsboholhWEoTpCEkwvlkaWs45f3QA0CDeo4x3uLntOt5h5HY5viIOD97RQLV6DwBoFP19ECHMARWJgmkBMikL84LvmQZqRiMIkyZLlglzbgDQNrc6R3R4MTBxCVIwBbKI95W44geZeJfEuxxzTn25c2y8XFt7gaLdr3PMZrL5nYD4/sLT2sUSAdMCBAfSeI+jQiYNEgQIAhPPr3PL+9/W3loo6gFHfGAyy4juJbL23JueYaMvhfx7qLXY3s37JeZsJRMmCJNl432WTZkmARKA8cI2tsKYuYbqgo/NNjw9t7tPnz7vE5mTouSZhcvlty+9ffmMDb+/bFMpA4CBwjs2aAIw8YZ9XhVV5X2vDw70c6IO7fOaV7tAgeWwuf3rsh7XuFt2/B6BIH5/W2bVpPfCh6fa3POAilMrmwnAhj20QpIf8AMdWclxxgdoB66XLfJ4t/LkVi57+Fr9810t8+48fqQQ+CiNmXPmBf3QE4aLlYatow5/yd92/DndZjXn9ChJEIEQRaIt5w1/WjdXzrFlNnOxLIlcRh7PhT+xCe/KIhDTECGyNHfiz+3KCEbk//3Pf/7zn//85z//+V8wAFZQOCBEQQAAkNsAnQEq9AErAgAAACWdu+ulZ7BXhAJ4NoEb5FZf1T8dPAqjP0H+1frN/V/+7/ivmGpf8v/sf5J/tH+6/y+8q1h9AHvweKfkX9Y/s3+Q/xn9Y////d+9P+s/w34MfKH+yf3X/be4D/Ff5f/Xv7F/jv9z/cP///9fA7+0/4k/AH+r/17/g/3b98Pl4/y3/F/3vuh/XL/n/6D/AfIJ/Nf6X/uPz/+NT2K/3e9hf+rf7X7//lr/1f/c/x/76/S9+y//U/yn7//Q1/Mv7T/vvz97gD1AP4B6g9yXzL/tH46fun6x/i/yf9H/tf6s/1H/k/5P44sUfXd/jehP8V+tf1X+x/47/Cf27/4/6j7pf0v+q8W/j//Of3T9rvgL/G/5L/VP7b+wn9v/9P+t5ji0H/G/vfsC+8H1j/S/4T92f7p6eP+N6dfXf/ne4J/Nv6d/q/75+93+V+W/+740f33/s+wN/X/8v/8fZf/tv+p/of3s/xHvy+pf+Z/nf3k/z/2Kfzf+yf6H/C/uJ/ef///zOZ4/VVNPmTxptExptExptExptExptExptExptExptExptExptExptExptExptExptExptExptExptExptExptExptExptExptExptExptExmcDYRNtExptExptEsDzsNyG+EJMujndVr+uoTk9aygYdYgGcbbqO/0j0LMelYOq/pfuIjiE0nZdhqhRYxXByUL9iULLgyeNNomNB29iRwxyieEQijmW3teAlUYi2f3sJfzFaQyYawchf3sgX9ncL/+zSxCFm48UjJZvnEZTu2D/z49iy9g2m0TGm0TGl9q2xXIuQyL6IBwTpqq2AGp935aSIB70bH+UAvhd9fKX3XRW4uG55a9PmTxYzMSdt4sODxm7OCebJCDb022kNfydPYJgNIRtTakJa/+NlFk2cDhPGm0TGl/cOYVr2fWpIO6gOEKCc7SKFbsjmIxTJchgoLCZaFv92LAmKW6Hn91/SgHtzNG3s0aeLHOpx8BMjTPmIg4RQRPGm0TGlz2TUOWEVh+I4nzGvX3+icof2SZhRBDBDgKg9C1AzgKar5xLJafudJ/l45Sg3t2M7gNyLD2qhRKRj9/V2NeCqhhjqbRMabRMXuI1IP5mDR9XWPocqMNGDmsQ5rjAPr/zavlS+0tXfFKmT+Rz4VbLObSehEeUo8LHx3i6HjZa8rwCW402iY02iXarO30oSkTgLL61rsLIdo3OOO9zSieGiNBZyroeMqHyiarj2wvFF+IjKshvZU16y16fMnjQZbjBcdojWlxNhx4yZc8exEfLNx9QZ0igtKlACoJvwLn5krhKIEQeaMfWXYTJnNwYAEOiTGm0TGm0QXegSWNbpPSphNj8ztZJBdVYoVTOl16rXfYatrWPSOYkyaoNS6RSojAaO0Xce1igfxJl3Jzh5a9PmOs/GK8ecUNZ/Gva+YEJ00SubZiMUncN2XR8YBVTReaU6IoOq3kIHG38BcA4SN2FqKJRzpI7CqcFWcpiCqTR7Q6SJTF9tGPmTxmqqbWifBtVqBiXdnKrt8pZylUHFYP2RYWT1k7jPTCF26X4ADENlnJx4NFrDuF4KRry81/dBL673x2MRr8hjY402iY02iYnuRz1fWsqySOjFFpjh4CI/T6MOsoqlVLHbMSdTUxAWgyeNNomNNomNNbZmDjfu+WyepkGYNpDhhrRMabRMabRMabPZgsZ1u1sr2QHQvX71bDtox8yeNNomNNol2iJFJsvsApK1TdJfQdzCOePDpFGsNoRJOcPLXp8yeNNomNNmqzWOjTLOflFAlUPKj6rjQ/s9PmTxptExptExptExptExptExptExptExptExptExptExIFltcSwWYGG0Y+ZNKd1XlcIaizLj1IDgvOrKIxHqrBaHN8EdoJk8acryxe8dP4a4b+52WokIpuapgTLjHV0Zlme9AcwXWumYZoZnug/XkSjmYtPdbbXnT5kpGaeJfnBQvU1yXcn6iej/pub5kxhXilDpDHK9Vi99bq2RF5+b8XM/VFTwt8aH4SlT8TZ3pRR2Mn6HoeScxbQUNLHPJsV0ay9Za9ZzBC7cIE29dPQ3nAk3HITl/lfIglGwxGYcAzcMpZG/FicnBs5jevGO+c4ONTHgtFzV6FGoXzq+kXsXDzzpP/6hliPxUt1Y0pQS3S/arCr/3dRUx53PrhayK6fxeT30v+rKfUNJps0GXG2ZTm+HBl9oDU8mfbtG94N8rI0jmfdlX5RrdmsnjTaJpUe+nzJ6V0xJZx1EY+ZPGm0TGm0TGm0TGm0TGm0TGm0TGm0TGm0TGm0TGm0TGm0TGm0TGm0TGm0TGm0TGm0TGm0SoAAD+//327UAAAAAAAABuYVUDBMCyvxkXuB2WvAzDthO5sKkvr7J912MJUVU3XOX+a3EHF16RnkbAn+zWxxzCiRWPVPu1bmDSlHM9P6U10QM5TOxfDkuaNwUg0kPpywfrTGOewI/SOzP77g7+yhdUuLscsLAhqDMR79I+wkSgaE30e/bnlbnCH/kgSQzC70bthTTyZ5hOK0gQ63jLcBYwJX70JnYOdjMjuivggSr+RBB38OmePAP/B6D3WnbMh9jReG/8j26zD4rAczqUAubfQWjKrvQIj3V/6RJ+GI6vk33VJUmLYkQMk7Ip0XUKO4vWvwCLtHBqmxIdsmn8IGsKTQASrA0A3jphxGMCbLbXvGRzhplWKQjSa5eDh2uC1+E204rjozPPLY/KhHfPcDGBdWBLEDOM1bNZGKoPWYEMmwIlRZ8RiFlIr5biivmoMbad9v3KOjdBODggh6GK3GXI9bXQG2Ca/5aD745pyLzu5e/VDHtiXDrSnDl87Rb4zRONb1ikNbD6uL9PGGKBfCUA6Pm69poFJwFXCaHKY7sXaxK0aJ0hnPgLiNQHz+ZkwSHvScjIDmXPUrLl6uFQ0MoZ2ErA6jGKxWFxx9OOZNsYMP89Qwz/NNqC5RzH0lx+7fjg34LFGjoTINg8X0pH2Eh5fSFYKmQ7yR8uIZjWCnA9zo/iLtzfmECf+4znL3/iYF2kLZ4QpKDtUjFAcwOiJG32xpuAtL1rM7cexS9eVltMRfMt4/JcDPraP6SfYIEBoxDKEwDmBI+8iuvpBG9AHuezqAjbvEByhyPNw8qg+pJz3sy9RZBGraFxEd25ZWcAaekIT6WfaKlf/EeYbRGN7c9snu54WTbZobgA3G+oGIaLqFZvKtCUPm3EXK6g0fiA0ky/TmrgN1YGnyh8MaTYnLnkiU1yyI/Cgy3L/i2sUilD2DnQlM8hbFBCedfkzfBTaRTGb/2it5V2uybWYLR0miv7FM42Hc0FJatuUp99XkuDERaSGRDVaEUibT9VnTDOv5LAwXN1tlRNxcENaxvNDDhdoxu0rR3urDYwPLOTEmrMXAlj0PsN92/aaIoMfmXvmp2VrMuv084Z6zNS4EAoC4R9JU1cGQUOoPlqZESUk6KTeMPIyOnF2LsgnPj0gTkktyn34/pgvpID0Akw2ukaONeo0YpqOLw+b2r1dMEQKAr2iyKXRtEV3OWGA/ZNPa/k3N3BEFc6MkXombTN/lvf0mGQ/WjRDTrJIQhETD8p/rjkefksWodZ1+1+SwQcdNyA0XoL4vZB+jHSewl+DP7Z3aUbQPqAWDeo33gp5+jXj08Lh5cTZppxHsup479NvSFLxI6+Pz6Kqp5YV73Nwgdu6DoOtID+5kSM5Iah7oPvBNqTLKaiQpUNSDwneN3iTkY8X6kv/zUSzhy+TPytTa6XAfJVElUJRHUdsy7AduiFWruXY4niAXGGO5xZEKtYu6hNiq30MYep4e1dmoMPMIep9erk0beJuN52WSW4TI5ODZFcF7qXdK6/AAMZH819Nw7+fH8xtb6IC20ILQtF1z5kX5EK51r3LoaegF19qaBvTj2ARE/svr1qoTXOQCkwe+0FQB8EkCbfPb9RijsbqMK2yJny7GsnqGRfg5GQrGYL+6yK/BRTETlotwcLfa9ER285lHmevjRrstqqQTtug8G8JsRabGHgGdylZ/j1mCH1IOyg63vpYnzenV9sdEy06cdKg8iGVru56t4Jps6YqLM5WkySgiU6Fj6knyeDYXt7TkUUbZo6wK1hNCvkgOQDES3Syz5e3oL1EP7Ww9S+34SWs5at08wQryDwLFUwFKfz3TQikrNJYAXKUs+vcPG2Guco0jVLCxMha1OfQb5G85PiRk77keYd2E3TtqpgJmVRKeCTt/PjXONfoNZjTNxkQJqCe6/dQ6NuOb4Iw+b94Ktde3RmxASB3mTJsTHomnYT14XMb6dHGaUhn/+yX4Tr16TSKdKK6h5XC8hjDC5zVRX4rL+1XNF16z+7vR3JiLqk8KF09OsLkeoS0ZPieU1kz6GltdsjZ9GWk/2Imyd6CJr/26RAp/m7FMNchZ7qfVzUjvN0Vhsw/jJkypDmsgjUSVNlVMtWIr15uPZE3sJM0AIOzWGCuWoKUThY7mXlUkD7npKPTQII5Uhl9Z6vbOfxaA/F5bHVe6sYwZm2R/zD8Y9La7ICm+ggZxFqn6aWKwOYVSrb6s8yFgHRhALhNp1ddPMmRKsaHrMLBz6otWP/EtK+ykm44y0f+Bs1IJ29fp1cVaNe8J2TELV+PDMkAOPULdjQZLRaS+t9mBEMZIIJXmvFtP/J8AnQ/vrQBmtr28dVYHa9XGtpXlKMrlMOvkMKrQ0+KLFxT3WWzCNOkzRBoLet7hlgtCyGPQXDl2fKH0IPQnRm9F2aO+KTfhyc5tzfLj0WLH0Cd3MvujRg/YtWXwNp+ggze89O49f05jlUuOzd5b8ri2iRl/sLFaMNJTgrtedS6ojRTjLET8yB4UzHPtScA3HC640bw7S1FoKHUoDih+k5hlPlDzHUpjz07mM4HW7REaXwWSy/zRICamsscXbAh0Z4zuTu9KJ0sDH2PTIJBz/mDgMc+cI7bp4WDAQFnA1qmLeGg2G7m4bvyxEC+ikkkLC3AINTUYUVBa3WdxqdVZQOpjettXV5xpNHH1UgWbNSehaLsoCDSpAWzwM3BN2GAmsKipclOfzeeAjsuD6Ylzwm4oN27mahEd2UMUneU6znpTQN4UYzTgM+kqCRM4pj1eYu8rKURZCOlSnjar1BWwOCKkz9tDjrpmpD/4gtsv5lN2cKXI4FlSSK+ZEY5RPb+T10IS6/+Em1zcL+vWdcyS1oYE1f/hJtpyUWXGklVBVKJI0voiLX2XftMX5u6m2AM7IIq+MmJl8gJfSiHnrs6X7yi9bce54hYArU1MWONbLRJpkLSoLQcRwDGorgYRttD0pdo2BsoLi6ySmCfDwCd+90ijegxlUNvkU4RNG6fA4aWFkqIjB1CPPkaKLL3jrV9RyH9K6GDNDuYoVIs4QyfSL+pP/CBp4zYH4SWk5ii0EEJuDt3iUMKtllh9v5LBhRbxwHGd996AxgApFGH8nuV1UCYBVX7vWBMBs1fgf9PVG/FglNsQqy46DP5eErCqaXzUwMKUKvNUQErfDuzjB1KSUkudGmAJj+Rner8LH6zAfLcYInp3tDGuSB8UjlkgaePIBOhyIPbPZsNBL6nNs74I5LjuCL27YV665rNXQUBrVeNqEpvwikkBAziiV3QQ9wUROYlVPs+dBDdJxXxYrL63Ytm0t6NSlmqk1MHeRY3VQIJWAWSdXJpC9zxH8EbxruuiSSINtC29ooiZhDca9O9fiZ/9tKVPvCCE+kfanJcjhicpqx4SZ+hIRb5D+UwmTlJFLk4r6xPG28Zd8wj/civJRlkbhH861nabKmPu34G3Mmo0nfR18ktwQsqOhWw665VRQpn3WfXy8wtiwy2RqJyZim7dRFQPb+wt5Wi9AhGoWhAHaTJgbpxesr5AH314kg8ZgCMusUZU4BepfqB4n8qNa7l6xaezUw7mUDiDA13cYTDwd8H4pzWs1vPzPQzZ9fQGb6AhNVFQWV73U+/5fOMjn9ie1/vyY/4Y1OArS0zxQ2grbE/bqfDQhh35HmnteZjZu55soPadbyNHloKoDiESWhg0EQQUteiv4JTRWCLdLS6u4HyWcZNJ3hKRs/u3VlrK0YASnJuOXw7PJkOTGbKsNAH6CvGrPV9bI/SPi9simTXPlhaOJXQb6reP38xwhR3VCTj9d4rar924bDzXYKiE0Eqxle5ACeQOmQgTJxPKxYy/BX7+Kj6fUpLO35Pd3IUJ+NG7oSWFVbhevKGQLMuHq7McrFX536Y9/m1GgfxT7naz5Ufwk9OYbAEX7nB4IvrxP/2qHaVFtAmaIwPtJBLgpdgWY+n7zuNbRiRTIkKT70WEL1Ngx5jVEn8xX1tgDnvfQWnqTVkarkBWAAQJaFQWwETyAn42GQIcnq7xUQ28ysJcnU5DvZEOUcYXDMCiFBW5KXvJSkzz3g9Uz5H5JkbLd2n8vcxHuibkRwbOLQxCB9yP4ArD+fRI0vcRp7y5mx7naZi+4RTXL136EyAAEyzD7jf5t6Nf7vj+YukrzQHxSCcZkd2sNAQRUq79CwUnty6qIllXX1rDObCF1UcAGbKZsaWETZoZ1lrngBWf4H5ICbuUao4PerQO9v8x5RYn4gYGp8E8uKvMEwHgRieJyIhdSwEw2oY14BBsYipYeHebbB8UB/xtlp3neA88oNWMqIYcthgzW+ez8pIIVNRVEYKz3p4JMgxAYzAEXdqisRad/vUxxuKXomb5Sl5cZThtEJ3es/kTYAKOxDofMiIntQxP6q5t4PtvmBAi04X5CTO7mR9zm1ztW9oE/cLPzBd+VXWhhMumBQh7cj432n8zlXrE6hpcn7bB5Rwp0BVI3BBl2dYWSJwBn/0b1vEuR9tSePD9xYY1ib4jikPc5sRVuIwrhLDcaoRpAH1/rX1QapmW6zqroHZ98rkDW0G7N0MsEIWmjtorFICZItX0GR08v4kIgsjXy09stnS98BYJ5CGxSZ52FHzbjrWXYRbm8iGiLIX5YpYodicSFy0bHKy2wSfDDAoAlzT0FATz3fulQJihFSPZEIVvDjgblnCDL3OIyBPWUnye1FgAy+/hJGH9uE7Tw/L7LlUSbRrde7zgFgdDz1I1sdghhIzGyuoGekJiHp+1cZWsuoqviGQQb8WCzEsOPkTrHE9MJzeg5ApOvnK0hBKp5QxHmsfQJSo41+Qps6ct46LxZVG4U7uEZyY6nEVRSXXqZUXyhcsCnQGGm7sx4jrgThnmQjvsdkTX9OkrUoTjmwcn5uwM7YCQwRMU9VEaIEZKaYNLb422dAoTBIt3jEoH7gJ9axjyQ3DGLZGQJJFJbTgGwjfIC59Sp+OummhgNBW8n1hNBrbfpewDwnGoLixBrxDiiBTJCxlO+wT3ZEkHyEEVEs/g7Fox/kzTiYzdrEj5Hdjse2IxKOHPU5dIC+/Z+66A9lbWzbcxIjox5lfMMwEMAqPFmoBkkZUKmPYPGt1sz8n2Kw+b5Q9a6Ra2MJiVG3oTSs2GL5AMJpNs6dTGw6vZQir7JBgRd7nU2q5CO2bdw6Afhm2/ongL6fWLySljAr1yiX/6a1jVh0A8rvpMbtQ5ckrQKqqwwPwRwXsx/UMMWfDp2UjnyiVmVt13svD5spZlG8lKp32WJG/vu97uW86s/cFz9AopGkvSKv+w9IJ7jvgvFmO0Wp5N8TfoqhslBkGiPVh9Qmxk8GcJX0P+eGgjRrm1M8JII0itWsz8T9U0QV/ZWspgwDvOJYce4uPbBWkSaentDeFqTBEthiEYDf7zSDepvXY1NFsx6UYuF5wd+/W1geiVSwz01XsN/Y1NtY2MR7xmgj2Ev5pPBiGxLTc/JbqcL2fw+sdaYRPaaS5eBYfua8UKDjHojFPhz5peNfCH5p3YOJxLJa//4tUJ0BRbNAojMVU2whT2rcnp3eMhtsEECWd+BgPlTEfHlaXZx5qsQZWwqV+75RB8X1dIFFtrtyIS6p/8XYTDq/z8ea4X+BpKEi2164rpRjGIETPdoRF8/UiamZoFWo53YX/DADnHeVulW2Je0Y6447lG3LEhXFWuZRv6HEYe5dF0p+E9ky9tznht6ScmSwIHptr78U5W4Pgi8QRprY+/uxiBr4/zCW8BS+zGq4UJXundIuF2336m8ArTWX6JRQUUioUBiwIt7XGjacaRSY5tncIryQd12H7UIDvoTW4W4A+IQsFBAUwyYFK3Ipw+t9Fjr5i0R7WXT3HgKzkaP+1uItb3IwuJJf6lOpl6anNNsx6SBAYKtE/3IozJlU5I+L1i8Rv80nQLLeZa253sEWaVEE+7PbKahbq+/xuXzJQFSnr/7zWrs7UpgGd9Wy7DyTwQJQiBtPrMSj81zQhbQjziMUoAAYsgNGAvp8oTF2sDnEZjfR+clUPYyqalSH2XzMrI6ctrc6AYAtf0Z5iANFaig1Z9tsUmmttpre+7KtvwAhpRW1vca15BTJpnVuZ/CMgUnWMzbkuRgJbM5gYfYACLNngotqNjZxtlo8wrRMgKGOCsbnfw/i+PuW1qcGBpayYcDYA6HViacci9iDQ7Ith+tfuS9dCcNqQIdNS+0y7y4ySO8OTk/s9eVVZLW09asYB64uChA8LnpRE+XvpQRkbkmch+HqOWfSFNUpXrOwSBifkX0bgnakOeN+0FHiT2Gjd+bngSco5eLMZhk/sUFWeqDKzaSML1FAEGJPURMp+c6QimiEnNeq+oFrG+S3ld0Wh0RKOs96woeJ+mtofopWpoIP5uK85royYDD1dKZMeLZJrZwKsRsQT1asq/bogDHzBcQDkEhKoql29XkuF6NkA77KF9DOPMegg2Dq4Ir6mzmR1bG9crnhmyBoQE+67rOgMgi3cMYea9hzZGGdIM6n1usGUErhtagmsTrLmIjhL+ODiyFFQzxKS/O3d4jECMoOZF0YM6jIhoMw/4UVU6HtzwQaFj3Cdquu8XOVDpKRNjb9dmwQt9UbmlLuG0YfwcMewoQyYk2yPIUhKSFMccddff6HEl4vYY1PJh2eJDh4NAEyirOEl3jCZjGkFW/J3GIGFx3eCCsfXQwVdCBrzZZn59HVjrPBYoyZP7BHtLlQ3Sc4OsD3A8Job+WSBMz3zIIYUMsEmTmZn9KlGCFpK8GMSgmHunRC9jm31Trc1OxSAjYv5h4ZkUHFPERAlhhl/GMlvWWXRzFm2P9jtTcSeVnFSFpwTb3kkNp7uOmgHj5G4gNd/vWm1kl6cdkMxrztG+wQkNQ6UQA9M6Qdsh4F2zT6BdGSeLVWwTkEq64Cs9QED1xL8V7i3NRy54xa7fHr3rZpiNAhg7q3yC85f4RG+y77wqGggN61eoJWukk1rOVOaeHLGCzg+O9YJtmynLVvu8f7rS8Ru90Oy1VzTU8qlGWYImGtr6QOzmKbewepC8B61BWVSUPgXM/7Q11OZ1TOPNnfmKtn5+iCYqlh70piOJpu3e4u9Axpi/HWsb973Gbhy5EZKw0N3tdkqhAA3ai2KESTwAt28px6ae8z778+OxZ5boMpi7TzG4tgFdbhy7kb4fE5pFMOgdj88sDx1lq94scd+w/Q7XpIKY+IiaXvY0LxKLFsxOUtytWUcua7Nvla98ox2aD8VL6W27oQ76S8+IiPJ4p2jhHox7dkhLne7zxEQzrZCdMMd+HqcyGf3izG3PYMmYphZ5NJ5GPD7yTFVrjvTuxOfNODWmr/QDqBY6WyyFAO5yuVrSvahCkqdj6lJG3XPuaJpGHx6elQqZag56gbC6YgpSQY1ySGz/Huw/aJQSNSry3GFW+6eG/8IyuXvyAUxZD4ihufsrUz4EC2rkgiEpAmJn8vTR8qyv13waYIImQlY6H+dJ56zk86PE9csPtcr1rYv5QjhoeMPCCTQFdogv7WayEIJQedTifExkFWxmgtZFdNs8vlv8EItWUgp0gLsdOXKczFeWjQTsDT+jtNfI+/7GyyVRgAKtgWtbBT7qjnkRxToUdpxFp9gLHXQX1mcLy2Zf8bnMTvcI+crLgZm11evkfsKsQnTHD2qHTIXgoFmxIwQoInWnOgAlTfydprUOqt6jlqvZslcbaQ/5O74ebXWxyjzNJyLYsVMjyfQFq1YSEyUg9UAgJAHFzrrkEUEGKT4do/dYRyDmPib5Kn9db9qKhx0YbLQH/HPPeCgD31Zwd4ifHN8nD62JlhXpLwbGFhmJoQMIPw3P/QQTj02YYpmDHxJkIOljGmAJ2d4Otni98T/V9vmvxE6Yv2l6Rfl18fZi9VuQgtObJfmsVEHMMkpD8xXfqYMdBKQViFl/pN9QyquxZJ5dYpr64c+eSR5R2/gQaMfNOBrBn49/cJ4TG3dRQgLVf40Dk4k8VtevG9ve8Hpvf3t5I2WkF0DpV+TBpOl/I3xQ8uMAJGuQvI48p+wGVQm2wKnIwHDiacer9DWgQ4Eg1oNGu8ZVCaDnphhy6tOyPZgXUVZ7qiTLoIvkeJDu1ucRSeY2vIRi8YuH77Oh1YihclusNF8zEdZ54d6CwtJ91MyDZjU2EIQ/0tJw/iohlA0VgWMc7+zSqBxCJCHTJG3imr4y0o81SYwEA122iVDwisfWUu80IHfCa2RIK6HkDIn87jDzFJ6uJhJAIUUmvQh2e219kKIH1Gp/pjJfng/+RskKlbNQfy9xRGtO/N2E0QpNoBubSFnVQvHQLaahcYzFNmjRQu4NNf7H07zjMGtP3TcVLdDX2KUCA1qjJXChGL7X9I9vGLrkE/5I6dFP8osOFt5YL15S5ZNr1FCvjRGH7RnFxN6HSIbyfcAtaMJY57wgE/8YYUIyd+ZOGtiZDz0IxzlekToCXSar6QYe3uAiDj3okPHHTEreveA8VbkGdmX8DKHs/ADVSaTDOUV67lyrDPkrI4QECNTgK2nT5LDJUQpskHRySjtMtvWN/6UCQpm5+9PiFaX9+b4EJuAVrKJjd2pcbDNCXG1DccCEUaFz4uCSTkde4sfLzywedciGib4ZyhSxVS2YbfM9abTntrChGIJKXCqzSXHfyN8Vf3dHWYx7FUzA0eX8B3EftAz8+1dDHfvY5jfkVNBHTZDRsb0Mlug/Zm3tp3GvFo8PuQqiU8bIitCsnSTJZEFP6siVP6X1Auv8sfOrYiq0R1lQjiY9GzctPNbp1DxJYA4aLN2ilb3hVxijUlEOd/N/utKZ2Vp6ku6RfyA2nPMJPiVkwH/lsdtxrfXjKqhqc3lWR7fSpPIercJVA2Q9Qq3aUwmU6iN+RAaaGtdADSUJWU4KfkoyV7oulyU4MDr8oo+HG2WMs4LaFd2vurPpwy6rC5PTkGFn5xiyhr765DNWv1Cvv6GBDlZRv+C0LrB9JYz7cfeKcgmDeqGRngHSMPs7R/JmTuoWnfCJl/aSzAWVOvJsu0yEe98eGdkAjcbLRVYbj/xX4Q5mlLGW5mK1a8YnTtUR/iaZozwU0UcprVVcEGDzpuSwYwkREFFzYiU5bae/674tu2fw66DM0QlZ2/WAaL9fLuxL30O6kJIM0ruZwSYFouMGM7FQkH7x8noKWJoTv3aVUAwmKlPLMUL+5fN+PUDDmac3xWqhl/DwYPmuzMdZRtSpxD7NgJFZvLsP/qFYprMHrVT6Qb+3An1Kph8g4mGFFlGkUBrZcQ+UuzSEYX/eeldLsMuicgcxHJAbULULgvbtcrNupnhEmdPgy9s/MFIjLwz93batPjyJbwa3wgsH8y0AoNEg1n/8SvGMPfngpAQ0fPjlgsoYX9nUL5qnKHRUPxH7iav8PJ/zY728KkFZEIvLSZxgAA5ByCm0idWKhSymmOo08vPtmEwyhRQg/VUeSH5B7bQxzRVAd1LVq2DlZrCEdVN28Krd1YnVbfiAc7oMlvqnir820i7E05SDE98HwCWxAYFthcecYPHVs1mG0ZQHziymzXQkd10ClKVx1wjMq/b71i0vVDZ2JxIgQ6ZyYTyqKuXco0v+MgwraKzJFiMqi4q7ZQSx//VVTEcPqijsHt5aPJZPU01k9F2fpGUertsTfisaLkn5VOXMyOlgN/JJzA3U2HqyKKU6q5+CgxizYQvBdsLb1kb7FSVSsIoALjMtxeLVqfNr8owxZf7TJqe4Fzn5iMLMlXzLSDtTQz/d2YMG4dVFQVN4DgZMJ9ZLmhIZ5/KyCG29DmWIvTs/09R7EQ0AULiAe7DIHB0g8KJLgqRRDPzY5Yaj4nxhlXXAGvC7gpZ3wYN0KWAjiEdXLX2Wqkz/fn+djK7BI5fByuortr/922Lnorm4LCvGMvaxHFmKgBFEcKMEnmqANmccacTclt3QJ1WGPYLuvwKuD+Y0hj3pPtzmfuNebyioSZNqSkuhdk9OD1BuQe94kVY1SvTKLakXG3AR5aL+tU20yiJ3PYymzKUl8sT+AICpyBNb3wlpJ/S67ff+FYhoXvJ6a648eUtw9cqKxiGLPhMdM4cPYwrO5CFQQQ2wm6U16a4KUUs0cDqJ6VaW6wVNe4O6ekSzOXYbFAC4/yvfrN50pJ2MPJLWE5Lh6lMrQ3FSyifoj4UUHiec4xVsu55tqnbnbbZe2svEO6Ur9XrSS2qxHlntsthgIuq/1XlVwNLIlkYTuzvLEav76Ir8TlpvHlNdwdNppzGxN7Du0JlNIVBKwk21jspldtInW7TApdasBDRQ21qnXt6w26TAJaJ/5szcrl7VPEN34fXxeXpCyUMljMzj5PGob9C1COgQYjLiKIKnL0MKol+0AGR6g0ykh3gfzOatcj9dNtqXG3dFp30nK1v8HA1ZUf81ZFR3xz/I5x37iW/Q/uD61sVMtpb6M2ZTTchYRWwo0AtOS0UUM9ubHZHr416+q2XzttpNAZ2c0ti/ZzQ+vmdwV3V6GUOYM77KMM84yTCfsoksR/gQZrCM4ytaG+o+5IMkpljjZ+QUGCupxlJuoAn5ixpFs/VVn+2ouMjWssvx8NDr4QDRQfcVnyGWK2rpwUm5LfDJpAEz27fs/timxsJw7HNQUg4/+uh8KFCeAReYPYJhkKjcntp0gLhImcpzGJR5/rkvB3ltBHRqiqadZuQ6hzis4ag+VnmsuS6Skw7O8d/7EifQZIcc5mX83Oia8yC5A1mmNfH6HNpWHNoZLWKq9Epv71FxpNMdq9b6vPif8+0cfjjesF8fBi5bqmVTyBSwRchxt9UInB+HO4kIEI5D4zqps2C+WBB86/+tOli0io9xBbpfXrmJqpvg40ZRXS8BC9aaKjsm2VSeNcC7iizRYXrC0dFlUP620kcwQsYu14jijzrRPIZplMelS2/Pc/k1SeICtbYcmlsD6IJAePL/9hQdZ2d6jiw50dsVNIzhuJeBLrOYj9mku3yCge/FaPIvJ/HRRoh3+1lHYeX72qpJ/6QX0Dpv6TGp1cN0YdwJvh0ebRN5hrN6TUnMqxiEewMPlGvObuJpAHA2fJsz7wmXHSYP+Yz2ZQW2gPsh3ex/aAurzvSzYDkdWh3bhTBxyEbM1EUsUJgsdDdqeUlgBm2+uwhP9s4/5d32ecVBy17NdZO72iHqFEDWqdl7/KH7FZfCTn5gTtVDbX/PDyUuBf5kJwORTXotWsrMmErybb0OUNE3F5uoUQHfHKZ4uHy+kcJwW19h5W6sKw5052G8BiJNWrdOGf5iPLUB6fb74EqhAC5/lnFRCRMxiGXhfpp4FiQ7zphIU3gPzTLvqGa+fuJJFsxoDLIx+ehiie1ATaDZPu7nxwl8/f3gC40N2mxOply9qyYD3fslBJTK4hx3rHJIlcxLiUpdRjt6DLkbgAAj0oZBGAG9sR7va7GYLCQm2jXsdKOeq6/LRaIwDrAie/dtn6PYf0JID2olY0QVtbuK+WwncxA9ZtO0pya4ApmvfEIvfZ88w9bc3yf7sAUqkhJwfRX0jAqV1q/abzYvIoAbsjx3tc/IjFbKbBg2Ktqs1y467XkNA+6A4/zV21TJNzch6575qtWVDJwlyrqbsS7TVYA1lxup9uSJrvZNtcHyzxfiwkJTQ4hwkv6oGr/xQ9vpjOf9o8VM3N7a1hZx8iqxHBfpcYYthlEkHiuIvFa+CT8dzHsB1y+6lqwWceF1SPHnZUa0S7kxHTgZpqKDqeAPnsH6crkpC3Z18LuWjgJIRyqEz6aD9u5sfjTBH9A8n5FCB/LIXTZs+KXd+F9DOzyKE7KRwA1FdQWh291KpQXeKa1BKCyG+kTuWicm/JchxsnnpvB+KCoGZ1hOPyQaNno+l5PyG1ooPAJgWwSMN5XvmPnO6mFyIbJsZNk6PelIfEPs/n4zU1CalWgXqV/nD1UoKPn8+S/BmBNLhi19JjT/QuL8QZZ+9X3tjTAjYbAY8SR4WVO4Mby8h/HIjC36bWwyKDXr/n0gcDWMMlOeoUbFuXb6q7G3YzifDqahdIgMYuoQjNy9gUCRfGfvKsbXlrGgpJWSLz2VZwipnYYiZhJ4TSFZ5L5oEaleEftJ6aF04llRKgTtXYBBnd6vwI3RrbHhmMGgIRNlm6RfpHFEvE9rtcye9lPWOhAACvo64cTcoi3bGq98oZjkAbAz0cuEAUSSQu5OKg9HuvPtHTBIXcdCg0K03UFNU90/9hct/II+jewj83wcapHw3nxwKwmrfdQn9zFg5EEIoBbez054h43tg3Gi16Ty6ZKfOTb7HAifYwj/UFBagqhD4HTOjinqTiN//XrosktJDRDgGc5TinLHil1oSFiksxgk4tWZijJK/42ao5tmkFiL2IB6uaMFND4fz+j37ErLi7JtSxid/9ea5657gbKiPGVdX6Cl+BaA5f6u6yViJgl2dpuP0o3HZTninSN4MR24+V7CasKiSHwJpMLYlNOYN/2uqNbe4nRMIYMKdYS2u/0KN/ZcSofWpOAtLKH4JtKHjOVVaahYkX6aZ1aV3m7b6VeYR9OZ6ISOUVESTLP2IKsRvqkWUivxB7JZxxJrZKnffDspkBP2L+PebyxQRX5pJDhoyPCq0WJ9eqYeN7WQCmo9Z1c8WvDvMrnyxXhmWRobMeXo5c+nA8c1D8KN+KA+KJjtDKJ0T6Gphe5Ffc1CZU7UrODIUWN2FoOqGPaop8TgGoKjGTDGUbHLY/JS2xhFuvX4MxrXAjsOnOd0rloqUHPwo/r/EqBQK2ruQeUKg14f5/qVC7j75PxmSjqA24Et2Zuo8iq1tF06TxswHpPTTZyEQxk+Vp13zkkG7lY2J2Zaolbdk3zV6j5NpWwDSw5ZFaQqtisS5ETYEQM9uEJQGmB9kzF2OEyOjtXnHsRVC0UeneK59C5rvG6eSMNr6leLsB8jFAwdzL879azCFh8tz/Z9DGyvt8LbwhynCrAzxX+xJUldGhXqA+vL0QWcHNREY1eDDkclogDKri92LPzhoA3AmvUIEUoyu650jdL5l6qz6kvDvoTMKwGrJ8NIrKw7/HdIpagOOJXD5QQXx/HUDIZ4gb2XVOa+C/Nxnk14Ggi/S4oAbMz1Qg9kaYNYJrL8XDko/WslKA1w2MWDChVDnGkR6HrPrtmd6vAnaYFI/nArsYjaUwyF/ubqafmHPuQQ642wAKxhuGfcjsACAZLyG9NoOseVGRQmTRgCnhyS3z+Rswwwf/H9qkekRRrXXkqLYQtytrzdCvL0AIp5kA6MJ6EtwaDUzj7vh267LPEWwfqZVxYNBKiheNTJxwbBZcyy6iwoI8p5TZ0xgEY/ZMPJv7xkR1DJm9Ql7fj3W6h/vnz5opit4694KQ7bwQ3rxQ9wmuOF+HfqBPbMnUUJgr7G/8P2mI7WkXw7Up8hxqARlWgAx+4/F4fITTS2ztuF9ZTUJ9ORs73R8PvKQtGccUDI6LGTkD8sdGOz7gND7xWlkK5MKJ7YhTg1b4oaeiUWGUs6Ba5PDUOpDiNDYNRjIC4YmBBZOcrXRAZwPbyby5s/4fX6wfbE5jpyM3sv8fW3+CZGqBqSSLAghpEZFtctPJxPUOVGod6l2UFtngQP4dl6fiAHidZuyAnQYpD7c6ML8meo2FT9DwT9l0cabbsBZkJ0txRnj4cDqCsjm8IAPHP9r6UihfFZdCF8fcAQdnFL8MfO2HnuubQ/vlYPVSp9dqzsGmW/Hq/PSav8nByi4QGfIgOrjKfOScXkBxJ0L0f0m+21dAstUSO71hAanQRFJpVHdHs3D20RnxU1K/4uzZwMkJ9I8LupZM5LztkimpMUtZTABbqOUHsEXn0hhDGai+UxfCW+1X9WBsonToWvU4qOUd38jIn0w1DUc4DZ1d+yjf8QP64Mo3bFgUphTn5cWw8FmNIDlmVJ7j8OGRk+lorRoXWAEP1j4ouzGvuhnzhVrmZjln6rbDjUhaj7gRMix2cIbTTF81rjKgnsIk0i2p4XCCpmvfFTG0aeepehThLPYPjYalnmeHDTUmi5X+IIzwSDdUO8X+vkVAnTtpK6demH5/UnNeludmYZ9uSia6rd6aBazggSbZT3q8pMg5tKbMwXs3XJXo1M+ouI83q7SwFvEaMxDLSxbdn0OmUdExPxVFpt2jWv/n+IbWxoEzDcuK2hVjgtxU8FxzlGACoHfHadTbtYjpdQSu2rWdO0ax89NKhmgMVv4E43ivUZ648VUidaM8b+AvRTAnDrz2XU7h465nsMwwHdnW9E03czKBm4wkG0JMdDy4GHJUdnMAXGUp1sd1vK4IXjWVXNtpwI7Knz01TtduFaOqQomH8Kd2+Qa16rGBiMVqc8qaw529di824QJIMalPTZhxwZxovTuuke5HSgz11gsb2eE4gazx6pp9gwsffT8rht7POATJnNoUloRHNMjyrHDeATGG/b0d5S4kkobncvO4gvGDrGCPue0SnQeKgaIAzEq70w8Gjp+bniRaL+R1IV66QGi6GoVj/+vnduJ6pnoD0MQZUjEpqc9Tffaw2xsP8JVDBh41igYnr6hPTDY7iGpI6eHL2BuLuJQBIj+muXK7bX5UXhEpRU1I6Sk9odaugGiu1NM8p77q4DazY2x9QruY0g65rPSu5hgKBARVERZTfdesXFtTiBJmdnMKeexzKBE7i5yYRZezxe3TsOfF3+IjeucAbR+EaA7H0X6cWbeRzU23bdYFqejXcjHotYC2JtW3+bTN2i1vp4g1oCfX4czo33stnJOPmVOK+kwdF1jnP+VHlyX/dkY5VlOhWYcK3jMluFsaKJ+duiRGKTBy/7WADkbShkVKDPis5SoZtReK82WcuSroZkkb5k/mC5gp47kzfihNwRoWQXbxazqq+B0HQJKGRJeFDCq+A6lg4Ytkh6keextK4KRJqLwaB4tQg407ZpqBMAIPZyZA2cTX/gk4tE4BeFolQEvATMuDTrD3HeIgH8HfIvX/9xT9ydgVjQTluQC+9bR6QAAGMfHT0y173EA+7fs/Vq0AH0vS9hVyQWmeh2cyIn/1Gw1DKNpxzp9KRZfDFbFrLJ8Fdaga+Ql7vL2DTj2A6G+RyAkglvIABAI4Zo7PRH5BpFL7taJXGszXVL+67/wbgDDZXLbuisa1txlYVU13ZxJnF0do+6yf/x2GEpP4pzdc81zsBF/0JZmKiTPfZDo9GLBnqcxE8+NTNIwi/r2P+ZAOVHgmxmKQUJhCKlZ6+UG5oLzwfpnMFgXhQPuPdEfA+IH2GIBcGN2Een/O/1RbEv+k3g1v1cZKHJQkeUroj8CYlBmxcieBPN7TBCTIrurXKN4QfAqTu5nrWd/Ad+G1wpOGhlGTySRZDxaRXehrQuVj2KZCOKUSwRNQFDwkguvHumhgf1MIQRLL/QRZxx6CH+3Ss5nIOPq4tpjFR+x4koJN3PsM+iGaps1ojhM0Iffr9ZB+OuKdUlo/f8qTTYzNmqqj+H9QJUfiegIUv3R1Mkh5mrzBEMwABCVe7Hvq2NmXFxE4nTPbcAehXiVdHmANEIdMIeqRahSRJpoY3XJiamd1cQgKcizw/Dqj07Na6IY2Eunv6Bx9zufxbFobrlEkoY/TmCQUndozD9Ws5WBJHvu7VctkRXuxSWurc7jctPZYfnSST5lhzc9tv4GiTOqbmY5GzNoVPINYImM7WDrAjZ+DF636UJgsCIXuAeXQb+nkCxt8C1llKt4oh2nIV7Xxjl1T9GTsAmfypy2+V6BGUtT6Y9AA08gKjZwsYSiq3ZqbXnOVPVy/U8EosDQrMIUvPvFnzacxVcbSsTntC1rhsM4uHl3NyoZQ43T64yFhiQzhOwiuvcKanes2BamXMFPgSn4vStYtlrw/5e1TOUGcpGx2TV00wMKazJzaDvSni6X7OZ/z3Ic5qiqCQPI0ybm9XGB66nAUwPxXDR21aAWiZPgEDwyLdetOuh+B6Wsu8+/gHpjlbeE9NJALEwOhzW6yqF8Gg+xS9bwc7mWmnJN+hzW6Dtcdvoitmwkul9OpMgRjybDVtoof4BcJONfIkLjTEIADTh/eC1fdRvAD7UnAzS2qveb6BFYtYSMszUByVRIJFSZgL5j31M/YyB0148U97xtlx9dw67SYWzpWdVy/2eggMWYpckCG2ZhpXoGnHxb9FC5SBcov38W8iFA99h75sQqERIk3IaMmyT5w+baZ/Wuz8GjbLpwyPCPmGuWCc8pkJpgcIEwxDO6vy3RD/zDMzdvn1iWfM8h2x2/jk7GP2Ox3R3C5f4AtJIyvgXd8GF3QMeKvJPWB7J5ymI1s8Z5msFSKf+4KehrbaKvP7xmoljr7rDmGW6I1FSw0a3HcyB4sDBJT/EVTHZz+2mcZK/oPiIKRs4qDKeaGbIeTbH3j93g0lKNH+ddPKbwEpd03c5gwArLN+XP/6yP5nn9fgxXc1K9QF6Q1VRnoHa/H4VBWCJJy2EWHlMpr+NrRP9aak2Z3UqiPoqY58JIsgdU0PCD97/mhOJajNKua+FGfHeI1UcfBgLu8iyqDFZtkkGaXM/DM3aDPJL9wzn9EbD0OYVT8L6sn2zYqmpTx8hJY36GBMAAGuc1hKUU8cILlB++Xpw/UtboUCkkwGjTgv71g9hlMgGANVzub+Sa9LDNOB/jxBqjMmoutHp5hM+n4Ck4AaNFh6iHPPhe54dXGkTBHvFSGg0Iag5lXzvZp0z690mWasGxS6EQKv3Ac9DAqrz6E/lrR/rwv7hM/qIxmJT3K+DvKFNhUZTIQBG/b0pBQpsutfkQmyl9df9nGNveH4iY3/+CXUw1CdkmCwDNZCkpeK9iOYGmRqBBjSmyNRdzVY1Tfh0abMK7njpUMOYAZ6NFqv+X0X7CErqnxV0ZXh6WqgJFN20B9q2aK1UqLKmKZTAdrb+yOIYpNTY9imgLuXXcEGalvX+p1ZkqCPle/04VDYpORI6PL8exBXkVTrDULVnlMDVmXYHCw+XUAAAAAAACo+7I38gMEwlw0+ysbugOn/+5hPIUtiUf/+7gDyLqTgAye4VzJlbN18lEmop4eKdRq2GbkR80DId0Ubz8c9+4kuyiPzHgK5x8hsar04+8gouezvWm/4Hq6D2MdErqg0hubsHgZaZgrfZGe/AjUm6VQ7mIob2OKgstZdl/+/3vspgmRGboQmGZ/kP2egsLWDUcm8nSaAGD9a4cJD0BwMhuBBref6spojO+OQRNlWNxyapTsaR+Ya8jLSHYjMjm+7h95IjHBC6Pc6WY81iN58tOnB6d8RufIpitDA39lvhJBWymSjiNnJEMkN3p+ssaTwOnBBhSmADXZCvyjeVRgXVnV9cLEYHsXsfl/eqFaM+hVvHsPaU82IpF2GllFugflApoS5P3v72hpXrcVzHOlf81KJg1sboCoGZ89SLQB15glcmdRY+KYnEtR+dg4kfXuzgGbe/1k/ZYyUpBOhJQuwf/jcHH6tLmSCIh1jiR0b+T6dBurXqYcptpwPFWM9zzOILhu1soyuA+aEvrN3VrDCTIR056SAtvncwrAaGZ6KbXTF4o3uIeZGlhmd42sMugeuulE/c1ZvL0Yen0slYS543y9zWVcK1+LsXzeAYJemeBlhvpiS2+nUVlAJPJMkVzbKz8orYCAzcm/2EPFj8CntbUpWYJu7KJsFL2oyll54ffp61ZeBUZsaudf3SWbwjetpbmHk8+iIxRY02flof2unj2QtThYHhQP6LyyldrzKE01IqFQNcDC1pPPONyn2EwFvYD0i5NB5KkeYvCywzU/PM+Whgk5cSIF0UAv10UzWQ2PRsQvauKwni7FT4sHECGWfTRJUXvPSRQgQB9o1DB0TvTAeIc3a8qIRARUSMWchwpmt2g/1iDvdJfpjj2n70h4QFNFj86JU0KjaPeUbmX/0enurbynU/upd+Jh3lmOIE8744CRoXe7gBtKKYna49Ts1REkD46rIyO03a0Wn25tzAvFgQAwfTaQV4+XQEv7U6doE2/HDCUklUK60Y3786UJEg9U6urmt78ZYYoyKe8qjFTq6XicVp7hwf5z/F0QKKi1u9dkoDlhTPNpLdIimwvHPNaabTiOGCTwosJzaToKBEFAoWkJlgHzXAJ40flREQAq1DMeCnj+au+HW5O0GJRco0WFFpdWpqm0r7sM+/Y3uOHv2+irjagw748lPNT9QSMonzk2ZJBcUqueEoRXLsuPSrROahJ5KjgTCJ/WNhM7a/mhYimkPsZhL/RduKuguYwxRAg+Q9AgOJcG5DpaQu5rSHiGBE+Rqx9UMmb0xb+EV8y99z0pfPGQ9eqcDV1o5/BjmyEx2Tv/Y2lBNDsww+uDqlApx25hLpQl7ig4oa2KakyFjc9c/ne9gDKi04Wa7XjNcaRW+cd934QEj4ZV99RqkhN0maP34+769L2r2eGFq9gTL3xuBXTv4dYZMmtlC1EusBO3LyNA+sdJCLM0YWJEIBxEf8Sry+QnGesKvWnUTUW9Armlq7uspZ3pm6NShSQoDzBHYTGGLDaM9CQ9HAgcTPXUT+bFCav2aLz3Oo0Wfik2jCytOpXagmddET0PBrswkzCFlHSAXaXK9o435pXU+YbN4YRkgkxSBAGmpGtJC/i1uM0irf34ZXcwfrrt0xci2CO9hkMf/DHwBOUYa9LDVKOA+ReoHQgvXTixX/sDStclcN5L0G90cAAEbZob1Nf0IyjgFj5r8z5UgWoGs6pafpAFfaBlRCJj/4/KfL8jgNh5UIswTbk7V7z1a6CAHEqYHhSLqAKH/+7/C9UCofHqHoR6zjMBW8QR9l3FN87nDoSaa/Cq4cCR2kXUGCvnEYObcPt3lf05tdGJhOVp46BalJ1DABV3yJw4YfSphG4/ZfnXPNS1wcCT/n3a7gt5VVEIzxhZEV38wpb7ecp/ZRWDchquqCwNUikhdP+LHz/FI882BgFrVZA9GgA0Fl0eoBsNP5dSAFdoWDl+i0CaHLKGRfJMk/jTGY3Ygca6mtkYDOhl1+O7+8q2ClYkegcz/lilaS/mYmvBRqJBpdjwTIm9nhrvLfp7utv0W5whMM3npUBkSgOpn7IoOC0EiLJj1OrIjsOIr1A39NXDSUfNIuSRBPBzMfXrt1PzSqDTcJN5opmqGnJgch81wfvWDvnI5ItMohTX4UDHCb+QYKiF6+RRUf4aBGbs6/Y48PSfbV8YIoaF/5//x+hXnmZjkWrrg5ssehEFTYHpFLCPzCzoWJiIEnszjAeRFdGV/E+4MwQe800syylVFIC5NDSKRCw6314+5aBuW8H2QWuhL3/+93g4ZLqaALNn91zu34hhrt81ibUpI6OjtR/nmW4/AwJlHuVihZ4fRCr+hxv3NHaT6zJAeuDaB9J6N2yxmrMzbMZqxNJOSFqUs6FrMwEFRT9Uocgt4aK3Gs3eK69+vZnBDPg0VCsroKwQHApN1QtK12O5qKsYw16Qr/kjHpkyGoo38lYQ2Y2NK+TuqbNdU9nPeaJxkm3szghDzfJ3vhBC5UoZRVpgRDUoFw2sUCRwtBu9pNBcjaMRG5VCAvEEs5eFFMZePgnDscY1jsQQUkVCfeuW8Ixav4X+24C+/TgVVDjBeINgBNY5aGADyJpe8+vIAH5/gcKO0TDCYV5yPPCTrEewHAeOptij9XHIO6B+xbolxW//nseMXYXu1pAFE6UYtjLUka/j2HwxLURnP8KWwZaGooQPw4RxrNjYX8IMn6gACUJwQj1tXq13IC0Pwq6/U4gBi8oZ+SZT2OlFUzpHaIf1ANDZL8yxcAp2HniQPbqRn3Vs2y4mdcakPbFAKolfy2ZeHGFnjxYQ33Fl3T+LQTTA/Jtn5WLhXF0Ddo40FNZLRlSk9yQAQNtvcKlJFwugEPQMuIK5VTcgk26qKhEAu8Fo5tyAeSMS/kqd57/lL130h//u2EufEBXndr0zXMP/jjLhWYHZTokkjORcYc5lBJ4DTpBuSDDkjmfZtZeVW5NXDteoMce9kAAAAAAAAAAAAAAAAA==;" vertex="1" parent="3">
                    <mxGeometry x="529.59" y="46.25" width="60.81" height="67.5" as="geometry"/>
                </mxCell>
                <mxCell id="48" value="Creates" style="html=1;verticalAlign=bottom;startArrow=circle;startFill=1;endArrow=open;startSize=6;endSize=8;entryX=0;entryY=0.5;entryDx=0;entryDy=0;" edge="1" parent="3" target="42">
                    <mxGeometry y="5" width="80" relative="1" as="geometry">
                        <mxPoint x="460" y="215" as="sourcePoint"/>
                        <mxPoint x="560" y="214.65999999999997" as="targetPoint"/>
                        <mxPoint as="offset"/>
                    </mxGeometry>
                </mxCell>
                <mxCell id="49" value="&lt;p style=&quot;margin:0px;margin-top:6px;text-align:center;&quot;&gt;&lt;b&gt;React Front End&lt;/b&gt;&lt;/p&gt;&lt;hr&gt;&lt;p style=&quot;text-align: center; margin: 0px 0px 0px 8px;&quot;&gt;&lt;font style=&quot;font-size: 19px;&quot;&gt;No Database&lt;/font&gt;&lt;br&gt;&lt;/p&gt;" style="align=left;overflow=fill;html=1;dropTarget=0;spacingTop=0;" vertex="1" parent="3">
                    <mxGeometry x="20" y="310" width="180" height="90" as="geometry"/>
                </mxCell>
                <mxCell id="50" value="" style="shape=component;jettyWidth=8;jettyHeight=4;fillColor=#ffe6cc;strokeColor=#d79b00;" vertex="1" parent="49">
                    <mxGeometry x="1" width="20" height="20" relative="1" as="geometry">
                        <mxPoint x="-24" y="4" as="offset"/>
                    </mxGeometry>
                </mxCell>
                <mxCell id="72" value="&lt;p style=&quot;margin:0px;margin-top:6px;text-align:center;&quot;&gt;&lt;b&gt;React Front End&lt;/b&gt;&lt;/p&gt;&lt;hr&gt;&lt;p style=&quot;text-align: center; margin: 0px 0px 0px 8px;&quot;&gt;&lt;font style=&quot;font-size: 19px;&quot;&gt;Study Area(?)&lt;/font&gt;&lt;br&gt;&lt;/p&gt;" style="align=left;overflow=fill;html=1;dropTarget=0;spacingTop=0;" vertex="1" parent="3">
                    <mxGeometry x="340" y="310" width="180" height="90" as="geometry"/>
                </mxCell>
                <mxCell id="73" value="" style="shape=component;jettyWidth=8;jettyHeight=4;fillColor=#ffe6cc;strokeColor=#d79b00;" vertex="1" parent="72">
                    <mxGeometry x="1" width="20" height="20" relative="1" as="geometry">
                        <mxPoint x="-24" y="4" as="offset"/>
                    </mxGeometry>
                </mxCell>
                <mxCell id="16" value="Grand Master &lt;br&gt;Jennifer" style="shape=umlActor;verticalLabelPosition=bottom;verticalAlign=top;html=1;" vertex="1" parent="2">
                    <mxGeometry x="10" y="220" width="60" height="130" as="geometry"/>
                </mxCell>
                <mxCell id="52" value="&lt;span style=&quot;font-size: 11px;&quot;&gt;Board&lt;/span&gt;&lt;br style=&quot;border-color: var(--border-color); font-size: 11px;&quot;&gt;&lt;span style=&quot;font-size: 11px;&quot;&gt;Buddy&lt;/span&gt;" style="html=1;rounded=0;fillColor=#ffe6cc;strokeColor=#d79b00;" vertex="1" parent="2">
                    <mxGeometry x="160" y="240" width="100" height="70" as="geometry"/>
                </mxCell>
                <mxCell id="66" value="" style="edgeStyle=none;html=1;endArrow=block;endFill=0;endSize=12;verticalAlign=bottom;labelBackgroundColor=none;" edge="1" parent="2">
                    <mxGeometry width="160" relative="1" as="geometry">
                        <mxPoint x="70" y="284.58" as="sourcePoint"/>
                        <mxPoint x="150" y="284.58" as="targetPoint"/>
                    </mxGeometry>
                </mxCell>
                <mxCell id="46" value="" style="rounded=0;orthogonalLoop=1;jettySize=auto;html=1;endArrow=halfCircle;endFill=0;endSize=6;strokeWidth=1;sketch=0;exitX=1;exitY=0.5;exitDx=0;exitDy=0;" edge="1" parent="1" source="33">
                    <mxGeometry relative="1" as="geometry">
                        <mxPoint x="490" y="165" as="sourcePoint"/>
                        <mxPoint x="830" y="315" as="targetPoint"/>
                    </mxGeometry>
                </mxCell>
                <mxCell id="57" value="" style="rounded=0;orthogonalLoop=1;jettySize=auto;html=1;endArrow=halfCircle;endFill=0;endSize=6;strokeWidth=1;sketch=0;exitX=0.5;exitY=0;exitDx=0;exitDy=0;exitPerimeter=0;" edge="1" parent="1" source="51">
                    <mxGeometry relative="1" as="geometry">
                        <mxPoint x="280" y="255" as="sourcePoint"/>
                        <mxPoint x="220" y="260" as="targetPoint"/>
                    </mxGeometry>
                </mxCell>
                <mxCell id="61" value="" style="html=1;verticalAlign=bottom;startArrow=circle;startFill=1;endArrow=open;startSize=6;endSize=8;entryX=0;entryY=0.5;entryDx=0;entryDy=0;" edge="1" parent="1" target="28">
                    <mxGeometry x="0.6883" width="80" relative="1" as="geometry">
                        <mxPoint x="220" y="260" as="sourcePoint"/>
                        <mxPoint x="310" y="300" as="targetPoint"/>
                        <Array as="points">
                            <mxPoint x="220" y="180"/>
                            <mxPoint x="300" y="180"/>
                            <mxPoint x="300" y="315"/>
                        </Array>
                        <mxPoint as="offset"/>
                    </mxGeometry>
                </mxCell>
                <mxCell id="62" value="" style="html=1;verticalAlign=bottom;startArrow=circle;startFill=1;endArrow=open;startSize=6;endSize=8;entryX=0;entryY=0.5;entryDx=0;entryDy=0;" edge="1" parent="1" target="49">
                    <mxGeometry x="0.8095" width="80" relative="1" as="geometry">
                        <mxPoint x="220" y="260" as="sourcePoint"/>
                        <mxPoint x="310" y="300" as="targetPoint"/>
                        <Array as="points">
                            <mxPoint x="220" y="180"/>
                            <mxPoint x="300" y="180"/>
                            <mxPoint x="300" y="455"/>
                        </Array>
                        <mxPoint as="offset"/>
                    </mxGeometry>
                </mxCell>
                <mxCell id="63" value="" style="html=1;verticalAlign=bottom;startArrow=circle;startFill=1;endArrow=open;startSize=6;endSize=8;entryX=0;entryY=0.5;entryDx=0;entryDy=0;" edge="1" parent="1" target="4">
                    <mxGeometry width="80" relative="1" as="geometry">
                        <mxPoint x="220" y="260" as="sourcePoint"/>
                        <mxPoint x="310" y="300" as="targetPoint"/>
                        <Array as="points">
                            <mxPoint x="220" y="180"/>
                        </Array>
                    </mxGeometry>
                </mxCell>
                <mxCell id="68" value="" style="rounded=0;orthogonalLoop=1;jettySize=auto;html=1;endArrow=halfCircle;endFill=0;endSize=6;strokeWidth=1;sketch=0;labelBackgroundColor=none;exitX=1;exitY=0.5;exitDx=0;exitDy=0;" edge="1" parent="1" source="49">
                    <mxGeometry relative="1" as="geometry">
                        <mxPoint x="480" y="345" as="sourcePoint"/>
                        <mxPoint x="630" y="455" as="targetPoint"/>
                    </mxGeometry>
                </mxCell>
                <mxCell id="70" value="Launches" style="html=1;verticalAlign=bottom;startArrow=circle;startFill=1;endArrow=open;startSize=6;endSize=8;labelBackgroundColor=none;entryX=0;entryY=0;entryDx=0;entryDy=52;entryPerimeter=0;" edge="1" parent="1">
                    <mxGeometry width="80" relative="1" as="geometry">
                        <mxPoint x="630" y="455" as="sourcePoint"/>
                        <mxPoint x="710" y="455" as="targetPoint"/>
                    </mxGeometry>
                </mxCell>
            </root>
        </mxGraphModel>
    </diagram>
</mxfile>